<?xml version="1.0" encoding="utf-8"?>
<!-- Generator: Adobe Illustrator 22.1.0, SVG Export Plug-In . SVG Version: 6.00 Build 0)  -->
<svg version="1.1" xmlns="http://www.w3.org/2000/svg" xmlns:xlink="http://www.w3.org/1999/xlink" x="0px" y="0px"
	 viewBox="0 0 500 500" style="enable-background:new 0 0 500 500;" xml:space="preserve">
<style type="text/css">
	.st0{fill:#9B1F2B;}
	.st1{fill:#294066;}
	.st2{fill:#FFFFFF;}
	.st3{fill:#A31A2E;}
	.st4{fill:none;}
</style>
<g id="Layer_2">
	<path class="st0" d="M181,40.1c-4.3,0.5-7.8,3.7-10.4,7.2c-5.5,7.5-7.8,17.1-7.6,26.4c0.1,4.1,0.7,8.4,2.9,11.9c1.3,2,3,3.6,4.9,5
		c3,2.2,6.5,3.8,10.1,4c3.7,0.2,7.6-1.3,9.6-4.4c2.1-3.2,1.9-7.3,2.2-11.1c0.2-3.8,1.4-8.1,4.8-9.8c-4.4-0.3-8.8-0.2-13.2,0.1
		c0,1.4,2,1.5,3.1,2.2c1.6,1,1.5,3.4,1.1,5.3c-0.7,3.3-1.8,6.5-3.1,9.6c-0.4,0.9-0.9,1.9-1.6,2.6c-1.3,1.2-3.3,1.3-5.1,1.3
		c-1.8,0-3.7,0-5.2-0.9c-2.3-1.3-3.2-4-3.8-6.6c-1.8-8.4-1.2-17.2,1.8-25.2c1.5-4,3.7-7.9,7.5-9.8c3.8-1.9,9.3-0.7,10.7,3.3
		c0.6,1.5,0.9,3.7,2.5,3.8c0.6-3.6,1.8-8.9-1-11.4C188.8,41.1,184.4,39.7,181,40.1z"/>
	<path class="st0" d="M230.6,80.9c-0.2-3.2-1.1-6.3-2.1-9.4c-0.9-3-1.9-6.1-3.6-8.7c-5.4-8.5-16.3-7.1-21.2,1.3
		c-2.9,5-3.2,11.2-2.7,16.9c0.5,5.6,2,11.7,6.4,15.2c4.6,3.6,11.6,3.4,16.3,0C228.5,92.8,230.9,86.8,230.6,80.9z M219.7,92.2
		c-0.4,0.8-0.9,1.5-1.7,2c-0.7,0.4-1.5,0.6-2.3,0.6c-3.5,0.2-7.1-1.8-8.8-4.8c-1.6-2.7-1.7-6-1.7-9.1c0-3.7,0.2-7.5,1.3-11.1
		c0.6-2.2,1.6-4.4,3.3-6c4.6-4.5,9.9-2,11.9,3.5c1,2.7,1.1,5.6,1.1,8.4C222.9,81.3,222.5,87.3,219.7,92.2z"/>
	<path class="st0" d="M260.5,65c-2.6-3.7-7-6-11.5-7c-2-0.4-11.2-2.1-12.6-0.2c-0.7,1,1.5,8.1,1.6,9.9c0.1,3.8,0.2,7.7,0.3,11.5
		c0.1,3,0.2,6-0.3,9c-0.5,3.1-1.7,6.1-3.5,8.7c-0.5,0.7-1,1.6-0.6,2.3c0.4,0.7,1.4,0.8,2.1,0.4c0.7-0.3,1.3-0.9,2-1.3
		c3-1.7,6.6,0.9,10,1.2c3.1,0.3,6.2-1.4,8.3-3.7c2.1-2.4,3.3-5.3,4.4-8.3C263.5,80.2,265,71.4,260.5,65z M257.3,83
		c-1,4.5-3.4,8.8-7.2,11.3c-1.6,1.1-3.9,1.8-5.5,0.7c-1.8-1.3-1.7-3.9-1.5-6.2c0.8-6.8,1.1-13.7,1-20.5c-0.1-3.3-1.3-5.9,2.6-6
		c2.8-0.1,5.9,1.1,8.3,2.6c0.6,0.4,1.2,0.8,1.6,1.4c0.6,0.9,0.8,2,0.9,3.1C258.1,73.9,258.3,78.5,257.3,83z"/>
	<path class="st1" d="M219.4,120.7c-0.9-2.2-2.7-4.1-5-4.7c2.9-2.9,3.5-7.9,1.4-11.4c-0.5-0.9-1.3-1.7-2.2-2
		c-0.7-0.3-1.4-0.3-2.1-0.3c-3.2,0-6.3-0.1-9.5-0.1c-4.1,0-1.4,1.2-0.7,3.7c0.4,1.4,0.3,3,0.2,4.5c-0.6,7.3-1.2,14.5-1.8,21.8
		c-0.1,1.8-0.4,3.8-1.9,4.8c-0.8,0.6-2.1,1-2.2,2c6.3,0.6,12.6,0.8,19,0.8c1,0,2.1-0.1,2.8-0.7c0.6-0.5,0.9-1.2,1.2-1.9
		c1.1-3,1.8-6.2,1.9-9.4C220.5,125.2,220.3,122.8,219.4,120.7z M208.3,105c1.7-0.7,4,1.8,4.3,3.2c0.5,2.3-1.2,4.8-3.5,5.1
		c-0.3,0-0.7,0-1-0.1c-0.5-0.3-0.5-1-0.5-1.5C207.6,110.3,206.8,105.7,208.3,105z M215.7,133c-0.3,1-0.6,2-1.4,2.7
		c-0.5,0.5-1.2,0.7-1.9,0.9c-2,0.5-4.1,0.2-5.9-0.7c-0.3-0.2-0.6-0.3-0.7-0.6c-0.2-0.3-0.2-0.7-0.2-1c0.1-4,1.1-7.8,1.4-11.7
		c0.1-1.3-0.3-3.1,1-3.7c1-0.5,3.6,0.8,4.5,1.3c2,1.2,3.3,3.5,3.8,5.8C216.7,128.3,216.4,130.7,215.7,133z"/>
	<path class="st1" d="M235.8,103.4c0.7,0.2,1.5,0.5,1.5,1.2c0.1,1.1-1.6,1.2-2.4,2c-0.4,0.5-0.5,1.2-0.6,1.8
		c-1,9.2-2.1,18.4-3.1,27.6c-0.1,0.6-0.1,1.4,0.4,1.8c0.3,0.3,0.8,0.3,1.3,0.4c2.6,0.1,5.1,0.3,7.7,0.4c0.7,0,1.6,0,2.1-0.5
		c0.5-0.5,0.4-1.4,0.6-2.1c0.2-0.7,1-1.4,1.6-1c0.5,3,0.6,6,0.4,9c-1.6,0.3-3.2-0.6-4.7-1.2c-6.4-2.4-14.2,0.8-20-2.8
		c1.4-0.9,2.9-1.5,4.6-1.8c0.9-9.9,1.8-19.9,2.8-29.8c0.2-2.2,0-4.3-1.6-5.9C229,101.8,232.9,102.7,235.8,103.4z"/>
	<path class="st1" d="M261.4,102.7c1.5-0.2,3.1-0.4,4.4,0.4c1.6,1,1.9,3.3,1.7,5.2c-0.2,1.9-0.7,3.8-0.2,5.7
		c-0.8-0.8-1.6-1.7-2.1-2.8c-0.6-1.1-1-2.4-1.8-3.4c-0.8-1-2-1.8-3.3-1.6c-2,0.4-2.6,3-2.8,5.1c-0.2,2.6-0.4,5.3-0.6,7.9
		c-0.1,1.4,0,3.1,1.3,3.6c1.4,0.6,2.8-1,3.5-2.4c0.5-0.9,0.9-1.7,1.4-2.6c0.6,4.5,0.4,9.2-0.4,13.7c-0.9-0.5-0.8-1.7-1.2-2.7
		c-0.4-1.2-1.6-2.1-2.9-2.4s-2.6-0.2-3.9-0.1c-0.4,2.9-0.7,5.9-0.9,8.8c-0.1,0.9-0.1,1.8,0.2,2.6c0.6,1.4,2.1,2.2,3.6,2.4
		c1.6,0.3,3.2,0.1,4.6-0.7s2.4-2.2,2.5-3.8c1.5,2.8,0.6,6.2-0.4,9.2c-0.1,0.4-0.3,0.8-0.6,1c-0.4,0.2-0.8,0.1-1.2,0
		c-5.4-1.2-10.8-2.7-16-4.6c2.7-9.8,3.6-20,4-30.2c0.1-1.5,0.1-3.2-0.5-4.6c-0.5-1.2-1.9-2.1-0.9-3c0.7-0.6,4.9-0.2,6-0.2
		C257.1,103.2,259.2,102.9,261.4,102.7z"/>
	<path class="st1" d="M286.2,106.9c-0.4-0.8-1.2-1.4-2-1.7c-3.9-1.4-8.2,1.1-10.9,4.3c-1.8,2.1-3.3,4.9-2.8,7.6
		c0.4,2.7,2.5,4.7,4.2,6.8c3.1,3.6,5.7,8,6.2,12.8c0.2,1.7,0,3.5-0.9,4.9c-0.9,1.4-2.9,2.2-4.4,1.3c-1.1-0.6-1.6-1.9-2-3
		c-1-2.8-1.9-5.6-2.6-8.5c-0.8,2.8-1.2,5.6-1.3,8.5c0,0.9,0,1.9,0.5,2.6c0.6,0.9,1.6,1.3,2.6,1.7c2.6,1,5.7,2,8.1,0.6
		c1.4-0.8,2.3-2.1,2.9-3.5c2.1-4.5,2.2-10,0.3-14.6c-1.6-3.6-4.3-6.7-5.5-10.5c-0.5-1.5-0.6-3.3,0-4.7c0.7-1.5,2.3-2.6,3.9-2.2
		c1.3,0.4,2.2,3.1,3.4,2.9C287,112,286.6,107.9,286.2,106.9z"/>
	<path class="st1" d="M303,107c-3.5-0.4-6.8,2.5-7.8,5.8c-1.1,3.4-0.3,7,1,10.3c1.3,3.3,3.1,6.3,4.3,9.6c0.7,1.9,1.2,4,0.4,5.8
		c-0.7,1.8-3.2,3.1-4.8,1.9c-0.8-0.6-1.2-1.5-1.5-2.4c-0.9-2.4-1.8-4.9-2.5-7.3c-3.4,3.5-2.9,10,1,13s10.2,1.8,12.8-2.3
		c2.3-3.6,1.5-8.4-0.2-12.3c-1.7-3.9-4.4-7.4-6.1-11.3c-0.5-1.2-0.9-2.5-0.9-3.8c0.1-1.3,0.8-2.6,1.9-3.2c1.6-0.7,3.6,0.3,4.6,1.9
		c0.9,1.5,1.1,3.4,1.2,5.2C306.1,114,308.7,107.6,303,107z"/>
	<path class="st1" d="M155.7,183c-1.7-0.8-2.3-2.8-2.7-4.7c-1.5-6.6-2.9-13.2-4.4-19.8c-1.1-5.1-2.2-10.1-4-15
		c-1-2.8-2.1-6.2-3.8-8.6c-2.1,1.3-4.3,6.7-5.3,9c-1,2.2-1.6,4.6-2.3,7c-1.5,4.7-3.4,9.3-5.3,13.8c-2,4.8-4.1,9.6-6.1,14.3
		c-0.7,1.5-1.5,3.2-3.1,3.7c-0.8,0.2-1.6,0.1-2.5,0.2c-0.8,0.1-1.7,0.6-1.8,1.4c5.2,0.9,10.5,1.3,15.8,1.3c-0.9-1.3-2.4-2.1-4-2.1
		c-0.4-1.8,0.4-3.6,1.2-5.2c1.6-3.5,3.3-6.9,4.9-10.4c0.2-0.3,0.3-0.7,0.6-0.8c0.3-0.2,0.7-0.2,1.1-0.2c3.5,0,7,0,10.6,0
		c0.9,5.5,2.1,10.9,3.6,16.2c-1.4,0.5-2.8,1.1-4,1.9c4.9,1.5,10.3,1.4,15.1-0.2C158.9,183.5,157,183.6,155.7,183z M142.7,164
		c-0.3,0.5-0.9,0.6-1.4,0.6c-2.5,0.1-5-0.1-7.4-0.8c-0.2-0.1-0.4-0.1-0.5-0.3c-0.1-0.2,0-0.5,0.1-0.7c0.6-1.5,3.6-12.9,4.6-12.9
		c1.3,0,4,11.2,4.6,12.8C142.8,163.1,143,163.6,142.7,164z"/>
	<path class="st1" d="M161.9,180.6c0,0.7,0,1.5-0.3,2.1c-0.2,0.4-0.5,0.8-0.8,1.2c-1.1,1.3-2.2,2.5-3.3,3.8c4,0.9,8.1,1.1,12.1,0.6
		c-1.5-1-2.9-1.9-4.4-2.9c-0.3-0.2-0.6-0.4-0.8-0.8c-0.2-0.4-0.1-0.8-0.1-1.2c0.6-5.6,1.2-11.2,1.8-16.8c1.6,7.3,3.2,14.7,7.4,20.9
		c3.7-7.6,7.4-15.2,11.1-22.8c-1.9,6.8-2.8,13.8-2.5,20.8c-1.6-0.1-3.2,0.7-4.1,2c4.9,0.9,9.9,1.2,14.8,0.9c-0.6-1.3-1.6-2.3-2.9-3
		c-0.6-0.3-1.2-0.6-1.5-1.2c-0.2-0.4-0.2-0.9-0.2-1.4c0.7-10.6,1.5-21.1,2.2-31.7c0.1-1,0-2.3-1-2.6c-1-0.3-1.8,0.7-2.3,1.6
		c-4.7,8.1-8.8,16.6-12.3,25.2c0.2-0.6-1.9-4.3-2.2-5.1c-0.6-1.9-1.2-3.8-1.6-5.7c-0.9-3.8-1.7-7.7-2.8-11.5
		c-0.3-1.1-0.8-4.2-2.1-4.5c-1.9-0.5-1.9,2.3-2.1,3.5c-0.7,4.4-1.3,8.8-1.6,13.3C162,170.4,161.8,175.5,161.9,180.6z"/>
	<path class="st1" d="M216.6,148c0.8,0,1.7,0,2.1,0.6c0.3,0.4,0.3,0.9,0.2,1.3c-0.1,3-0.6,6-1.6,8.9c-0.7-1.5-1.3-3-2-4.5
		c-0.3-0.6-0.6-1.3-1.1-1.7c-0.4-0.3-1-0.4-1.5-0.5c-1.9-0.3-3.9-0.4-5.8-0.4c-0.3,4.9-0.4,9.8-0.4,14.8c2.1-0.1,4.3-0.2,6.4-0.4
		c0.2-1.1,0.7-2.2,1.3-3.1c0.9,4.4,1.2,8.8,1,13.3c-1.2-1-2.2-2.3-2.8-3.8c-0.3-0.8-0.6-1.8-1.4-2.2c-0.4-0.2-0.9-0.2-1.3-0.2
		c-1.6,0-3.1,0-4.7,0c0,5.1,0.1,10.1,0.1,15.2c0,0.2,0,0.4,0.1,0.6c0.1,0.2,0.4,0.3,0.6,0.3c1.4,0.3,2.8,0.6,4.2,0.4
		c1.4-0.2,2.8-1,3.4-2.3c0.4-1,0.4-2.3,1.4-2.7c0.2,3,0.3,6,0.2,9c0,0.2,0,0.5-0.2,0.7c-0.2,0.2-0.5,0.3-0.8,0.3
		c-6.7,0.7-13.5,1.3-20-0.5c1.7-0.7,2.3-2.6,2.8-4.4c2.6-10.8,3.7-21.9,3.3-33c0-0.7-0.1-1.5-0.4-2.1c-0.8-1.2-2.9-1.3-3.3-2.6
		c2.4-1.2,7-0.6,9.8-0.7C209.7,148.3,213.1,148.2,216.6,148z"/>
	<path class="st1" d="M242.6,184.2c-0.8-2.6-1-5.3-1.9-7.8c-0.4-1.3-1.4-2.7-2.7-2.5c1.4-1.8,2.7-3.7,3.9-5.7c1.3-2.1,2.5-4.2,3-6.6
		c0.5-2.4,0.2-5-1.2-7c-1.9-2.5-5.3-3.4-8.4-3.9c-2.7-0.4-11-2.8-12.5,0.7c-0.7,1.6,0.7,4.3,1,6c0.3,2.4,0.2,4.9,0,7.3
		c-0.4,6.5-0.8,13.1-1.2,19.6c-0.1,2-0.5,4.3-2.2,5.2c-0.8,0.4-1.9,0.7-1.8,1.6c0.1,0.7,0.9,0.9,1.6,1c3.5,0.3,7.1-0.1,10.5-1.2
		c-1.7-0.1-2.2-2.4-2.2-4.1c0-2.2,0-4.5,0-6.7c0-0.9,0-1.8,0.6-2.5c1-1.2,3.1-0.8,4.1,0.5c1,1.2,1.2,2.9,1.5,4.4
		c0.4,2.1,1,4.2,1.9,6.2c0.3,0.7,0.7,1.4,1.3,1.9c0.8,0.6,2,0.6,3,0.5c2.4-0.2,4.8-0.6,7.1-1.2C245.3,189.3,243.5,186.7,242.6,184.2
		z M232.5,170.8c-0.1,0.2-0.3,0.5-0.6,0.5c-0.2,0-0.3-0.1-0.5-0.2c-0.9-0.8-1.1-2-1.2-3.1c-0.3-2.6-1.7-10,0.2-12.1
		c2.7-3,5.8,1.4,5.6,4C235.8,163.6,234.5,167.4,232.5,170.8z"/>
	<path class="st1" d="M258.8,148.9c0.6,0.1,1.3,0.3,1.5,0.9c0.2,0.7-0.5,1.4-1,2c-1.2,1.4-1.3,3.5-1.3,5.3c0,10.6-0.1,21.1-0.1,31.7
		c0,0.5,0,1,0.3,1.4c0.4,0.7,1.5,1.2,1.2,1.9c-4.2,0.9-8.7,0.7-12.8-0.4c-0.1-0.8,0.8-1.2,1.5-1.7c2.4-1.4,2.7-4.8,2.7-7.6
		c0-8.4,0.4-16.8,1.2-25.2c0.2-1.6,0.3-3.3,0.1-4.9c-0.3-1.9-2.3-3.2-0.2-4C253.7,147.8,257,148.6,258.8,148.9z"/>
	<path class="st1" d="M276.2,154.1c-2.3,1.2-4.1,3.2-5.7,5.2c-1.4,1.8-2.7,3.6-3.6,5.7c-2.5,5.6-1.6,12.1,0.2,17.9
		c0.4,1.3,0.9,2.7,1.7,3.8c1.5,2,4,3,6.1,4.5c1.7,1.2,3.2,2.6,4.9,3.7s3.8,1.9,5.9,1.4c2.4-0.6,4-2.7,5.4-4.6
		c1.7-2.3,3.4-5.2,2.5-7.9c-0.1-0.2-0.1-0.4-0.3-0.5c-0.4-0.3-0.9,0-1.2,0.3c-2.4,2-3.9,5.3-6.8,6.5c-3.5,1.4-7.6-1-9.3-4.3
		c-1.7-3.4-1.5-7.4-0.9-11.1c0.5-2.9,1.1-5.8,2-8.6c0.7-2.1,1.4-4.2,2.7-5.9c0.9-1.3,2.5-2.6,4.1-2.6c1.9,0,2.5,1.4,3.8,2.5
		c1.6,1.4,4.4,1.5,5.1-1.1C294.7,151.9,279.7,152.4,276.2,154.1z"/>
	<path class="st1" d="M322.5,189.8c-0.7-2-0.7-4.1-1.1-6.2c-0.4-2-1.1-4-1.8-5.9c-1-2.9-6.4-22.9-10.2-21.2
		c-1.3,0.6-2.1,3.7-2.7,4.9c-0.9,2-1.7,3.9-2.4,5.9c-1.5,4.1-2.8,8.2-3.8,12.5c-1.2,4.9-2.2,10.3-5.8,13.8c2.6,0.6,5.2,0.9,7.8,0.7
		c0.3-1.1-0.5-2.1-0.6-3.3c0-0.7,0.2-1.3,0.4-1.9c1.4-4,2.8-8,4.1-12.1c2.5,0.1,5,0.9,7.1,2.4c-0.1,3.4,0.3,6.9,1,10.2
		c0.2,1,0.5,2,0.3,3.1c-0.2,1-1.1,2-2.1,1.9c4.2,0.6,8.5,0.7,12.8,0.4C324.2,193.4,323.1,191.7,322.5,189.8z M310.8,174.6
		c-0.7,0.1-1.4,0-2.1-0.3c-0.1,0-0.2-0.1-0.3-0.2c-0.1-0.1-0.1-0.3-0.1-0.5c0.1-1.2,0.1-8.9,2.2-8.1
		C311.9,165.9,311.2,174.6,310.8,174.6z"/>
	<path class="st1" d="M314.8,409.3c-1,1-1.2,3-1.3,4.4c-0.3,4.4-0.4,8.7-0.9,13.1c0.5,0.5,1.5,0.3,1.9-0.3s0.5-1.4,0.6-2.1
		c0.1-1.9,0.3-3.8,0.4-5.7c1.4,0,2.9,0,4.3,0c0.7,0,1.5,0,1.9,0.6c0.3,0.4,0.3,0.8,0.3,1.3c0,1.8,0,3.6,0,5.4c0,0.3,0,0.7,0.2,0.9
		c0.4,0.8,1.5,0.7,2.3,0.5c0.3-5.9,0.4-11.9,0.2-17.8c-0.6-0.1-0.9,0.6-1,1.2c-0.4,2-0.7,4-1.1,6c-1.8,0-3.7,0-5.5,0
		c-0.2,0-0.4,0-0.5-0.1c-0.1-0.1-0.1-0.3-0.1-0.5c0.3-2.4,0.7-4.8,0.9-7.3C316.2,408.4,315.4,408.7,314.8,409.3z"/>
	<path class="st1" d="M341.6,428.9c-1.3-4.7-2.6-9.5-3.9-14.2c-0.2-0.7-0.6-2.9-1.5-3c-0.9-0.1-1.7,2.4-2.1,3
		c-1.3,2.4-2.8,4.8-4.3,7.2c-1.4,2.2-2.9,4.5-2.8,7.1c1.4-1.3,2.8-2.6,4.2-3.9c0.4-0.4,0.9-0.9,1.5-1.1c1.7-0.6,3.4,0.9,4.3,2.4
		c0.9,1.6,1.5,3.4,3.1,4.3c0.3,0.2,0.7,0.3,1,0.2C341.9,430.8,341.8,429.7,341.6,428.9z M336,421.1c-0.4,0.5-1.1,0.4-1.7,0.4
		c-0.3,0-0.7-0.1-0.8-0.4c-0.1-0.2,0-0.4,0.1-0.6c0.5-1,1-1.9,1.5-2.9l0.2-0.5c0.5,0.9,0.8,1.9,0.9,3
		C336.3,420.3,336.3,420.8,336,421.1z"/>
	<path class="st1" d="M345.6,429.5c0.3,0,0.7,0,1,0c0.7-3,1.6-6,2.7-9c0.1-0.2,0.2-0.5,0.5-0.5c0.2,0,0.3,0.1,0.4,0.3
		c3,3.2,5.8,6.5,8.5,10c0.2,0.3,0.5,0.5,0.8,0.5c0.4,0,0.6-0.5,0.7-0.9c1.4-5.7,0.1-11.6,0.5-17.4c-0.3-0.4-0.8,0.3-0.9,0.8
		c-0.5,3.7-0.9,7.4-1.4,11.1c-2.3-1.4-3.8-3.7-5.1-6c-0.9-1.7-1.4-4.8-3.9-4.4C344.6,414.7,347.4,429.5,345.6,429.5z"/>
	<path class="st1" d="M363.7,431.7c1.1,0.3,2.5,0.5,3.3-0.3c0.4-0.4,0.5-1.1,0.6-1.7c0.2-0.9,0.3-1.9,0.5-2.8c0.1-0.5,0.3-1.1,0.8-1
		c0.2,0,0.3,0.2,0.5,0.3c2,2,4,4,6,6c0.6,0.6,1.3,1.3,2.2,1.5c0.9,0.1,2-0.5,1.9-1.4c-0.1-0.4-0.4-0.8-0.7-1.1
		c-1.2-1.3-2.3-2.6-3.5-3.9c-0.6-0.6-1.1-1.3-1.3-2.1c-0.4-1.6,1-3.1,2.1-4.3c1.9-2,3.5-4.4,4.7-6.8c-1.3-0.3-2.7-0.6-3.8,0.1
		c-0.4,0.3-0.7,0.6-1.1,1c-2,2.4-4,4.8-6,7.2c-0.7-3.3-1-6.6-0.8-10c-1.1,0-3.8-0.3-4.7,0.7c-1.1,1.1-0.5,4.1-0.5,5.5
		C363.8,419.6,363.2,431.5,363.7,431.7z"/>
	<path class="st1" d="M391.4,432.3c1.3,0.4,2.9,0.6,3.7-0.4c0.3-0.3,0.4-0.8,0.5-1.2c0.6-2.6,0.2-5.4,1.1-7.9c1-2.6,3.2-4.6,4.1-7.1
		c0.1-0.3,0.2-0.6,0-0.9c-0.1-0.1-0.2-0.2-0.4-0.3c-1.3-0.6-2.6,0.7-3.4,1.8c-1.2,1.6-2.4,3.3-3.6,4.9c0.3-0.4-3.1-5.2-3.7-5.3
		c-2-0.4-1.9,1.7-1.4,2.8c1,2.2,2.4,3.7,2.9,6.3C391.7,427.3,391.6,429.8,391.4,432.3z"/>
	<path class="st1" d="M414.8,413c-3.2-0.4-7.8,0-10.1,2.5c-0.7,0.7-1.2,1.7-1.6,2.6c-0.6,1.4-1.1,2.9-1.2,4.5
		c-0.2,4.7,3.8,9.1,8.5,9.4c0.8,0.1,1.7,0,2.4-0.3c1.3-0.5,2.4-1.6,3.2-2.7c2-2.5,3.4-5.6,3.5-8.8
		C419.7,417.2,418.2,413.4,414.8,413z M413.5,427.3c-0.3,0.5-0.6,1-1,1.4c-1,0.7-2.4,0.6-3.4,0c-2-1.1-3.2-3.4-3.2-5.7
		c-0.1-4.2,3.1-8.4,7.7-7C417.7,417.3,414.9,424.7,413.5,427.3z"/>
	<path class="st1" d="M423.3,424.8c0.1,0.7,0.3,1.3,0.6,1.9c0.5,0.9,1.4,1.5,2.3,2c1.3,0.8,2.8,1.7,4.3,1.6c1.7-0.1,3-1.3,4-2.7
		c1.3-1.8,2.2-4,2.5-6.3c0.3-2.3,0-4.6-0.4-6.9c-0.1-0.7-0.2-1.4-0.6-1.9s-1.3-0.7-1.8-0.3c0.2,2.7-0.1,5.4-0.7,7.9
		c-0.4,1.5-0.9,3-2,4c-1.1,1-2.9,1.5-4.2,0.6c-1.4-1-1.5-3-1.5-4.7c0-1.7,1.2-8.4-1.8-5.2C421.8,417.2,422.7,422,423.3,424.8z"/>
	<path class="st1" d="M252.5,452.1c0,0.2,0,0.4,0.1,0.5c0.1,0.1,0.3,0.1,0.5,0.1c0.5,0,1,0,1.4,0c0.2,0,0.5,0,0.7-0.2
		c0.1-0.1,0.1-0.3,0.2-0.5c0.2-1.6,0-3.4,0.8-4.9c0.1-0.3,0.3-0.5,0.6-0.7c0.3-0.1,0.6-0.1,0.9-0.1c1,0,2,0,3,0.1
		c0.7,0,1.4,0,1.9-0.3c0.6-0.4,0.9-1.2,0.4-1.7c-0.5-0.5-1.4-0.2-2.1,0c-0.7,0.2-1.4,0.4-2.1,0.5c-0.7,0.1-1.4,0-1.9-0.5
		c-0.6-0.7-0.4-1.7-0.1-2.6c0.2-0.5,0.3-1.1,0.8-1.4c0.4-0.3,1-0.3,1.5-0.3c1,0,1.9,0.1,2.9,0.1c0.8,0,1.7,0,2.1-0.7
		c0.4-0.7-0.2-1.7-1-2s-1.7-0.1-2.5,0.1c-2.9,0.7-5.9,0.4-6.7,3.4C253.1,444.7,252.8,448.5,252.5,452.1z"/>
	<path class="st1" d="M277,441.5c-0.3-1.1-1-2-1.6-2.9c-0.4-0.5-0.7-1-1.3-1.4c-2.7-1.7-6.7-0.4-8.4,2.1c-1.3,1.9-1.7,4.3-2.1,6.7
		c-0.1,0.6-0.2,1.3,0,1.8c0.1,0.5,0.5,0.9,0.8,1.2c1.1,1.3,2.6,2.3,4.3,2.6c1.7,0.4,3.5,0.1,4.9-0.8c1.2-0.8,2-2.1,2.6-3.4
		C277.1,445.6,277.6,443.4,277,441.5z M272.4,446.7c-0.9,1-2.6,1.4-3.7,0.6c-0.7-0.5-1.1-1.4-1.2-2.2c-0.1-0.9,0.1-1.7,0.2-2.6
		c1-4.8,5.8-4.9,5.8,0.3C273.6,444.2,273.3,445.7,272.4,446.7z"/>
	<path class="st1" d="M289,448.6c-1.1-1.5-2.5-2.8-3.2-4.5c-0.1-0.2-0.1-0.3-0.1-0.5c0-0.2,0.1-0.3,0.2-0.4c0.3-0.4,0.5-0.8,0.8-1.1
		c0.6-0.8,1.1-1.7,1.3-2.7s-0.1-2.2-0.9-2.7c-0.6-0.4-1.4-0.4-2.1-0.4c-2.8,0-6-1-6.6,2.3c-0.6,3.3-0.5,7.2-0.5,10.6
		c0,0.7,0,1.7,0.7,2c0.7,0.3,1.5-0.3,1.7-1.1c0.2-0.7,0-1.5-0.1-2.2c-0.1-0.8,0.1-1.6,0.7-2c0.6-0.4,1.5-0.3,2.1,0.2
		c0.6,0.4,1,1.1,1.4,1.7c0.6,0.8,1.2,1.7,1.9,2.4c0.5,0.5,1,1,1.6,1.1c0.6,0.2,1.4-0.1,1.7-0.7C289.7,449.8,289.3,449.1,289,448.6z
		 M283.8,442.2c-0.7,0.5-1.6,0.6-2.4,0.4c-0.2-0.1-0.5-0.2-0.6-0.3c-0.1-0.2-0.1-0.4-0.1-0.5c0-1.1,0-2.2,0-3.2
		c-0.2-0.1-0.4-0.2-0.5-0.4l0.6,0c0,0.1,0,0.2,0,0.3c1.2,0.6,2.9,0.3,3.6,1.5C284.8,440.7,284.5,441.7,283.8,442.2z"/>
	<path class="st1" d="M299.5,444c0.3,0.6,0.1,1.4-0.1,2.1c-0.7,2.3-1,4.7-0.9,7.1c0.6,0,1.2,0,1.7-0.2c0.2-0.1,0.4-0.2,0.5-0.3
		c0.1-0.1,0.1-0.3,0.1-0.5c0.2-2.1,0.5-4.2,0.7-6.4c0-0.3,0.1-0.5,0.2-0.7c0.1-0.2,0.3-0.3,0.4-0.4c1.5-1.1,2.8-2.3,4.1-3.7
		c0.4-0.4,0.8-1,0.7-1.6c-0.1-0.8-1.2-1.1-1.9-0.8s-1.2,0.9-1.7,1.5c-0.6,0.8-1.3,1.5-2.1,2.2c-0.1,0.1-0.3,0.3-0.5,0.3
		c-1.5,0.1-2.8-5.2-4.5-3.2C295,441,298.8,442.7,299.5,444z"/>
	<path class="st1" d="M316.6,442c-1.7-3.1-4.4-3.8-7.2-1.5c-1.4,1.2-2.6,2.7-3,4.5c-0.4,1.8-0.1,3.8,1.1,5.2
		c0.7,0.8,1.5,1.3,2.5,1.8c1.8,0.9,4.1,1.5,5.8,0.3c0.9-0.6,1.3-1.6,1.6-2.7C318.1,447.1,317.8,444.3,316.6,442z M314.8,447.8
		c-0.3,0.6-0.6,1.2-1.2,1.5c-0.8,0.5-2,0.4-2.7-0.2s-1.2-1.5-1.4-2.5c-0.3-1.8,1.3-5.8,3.7-5.3C315.7,441.8,315.5,446.2,314.8,447.8
		z"/>
	<path class="st1" d="M320.4,449.2c0.1,1,0.4,2,1,2.8c1,1.1,2.6,1.3,4.1,1.4c0.5,0,0.9,0,1.4-0.1c0.6-0.2,1.1-0.6,1.5-1.1
		c1.4-1.6,2.2-3.8,2.5-5.9s0.3-4.3,0.2-6.5c-0.5,0-1.1,0-1.6,0c-0.4,3.7-1.8,7.2-4,10.2c-0.2,0.3-0.6,0.7-0.9,0.5
		c-0.3-0.1-0.4-0.4-0.5-0.7c-0.9-3-0.4-6.2-0.6-9.3c0-0.2,0-0.4-0.2-0.5c-0.1-0.1-0.3-0.1-0.4,0c-2.4,0.4-2.8,0.3-3,2.8
		C319.9,444.8,320.1,447,320.4,449.2z"/>
	<path class="st1" d="M342.1,452.6c-0.7-0.7-1.5-1.3-2.2-2c-0.3-0.3-0.6-0.6-0.7-1c-0.2-0.6,0.3-1.3,0.8-1.7
		c0.7-0.7,1.5-1.3,2.1-2.1c0.6-0.8,1-1.8,0.8-2.7c-0.3-1.5-1.9-2.3-3.3-2.7c-3-0.8-6-1.1-6.2,2.4c-0.3,4.2,0,8.4-0.2,12.6
		c0.6,0.5,1.5,0.1,1.8-0.6c0.3-0.7,0.2-1.4,0.1-2.2c-0.1-0.7-0.1-1.5,0.3-2.1c0.1-0.1,0.2-0.2,0.3-0.3c0.3-0.1,0.6,0.2,0.8,0.4
		c0.8,1,1.6,2,2.5,3c0.6,0.7,1.3,1.5,2.2,1.7c0.9,0.2,2.1-0.4,2-1.3C343,453.4,342.6,453,342.1,452.6z M336.8,447.5
		c-0.3,0.1-0.6,0.1-0.8-0.1c-0.2-0.2-0.2-0.4-0.2-0.7c0-1.2,0-2.3,0-3.5c-0.1,0-0.2-0.1-0.4-0.1l0.4-0.1c0,0.1,0,0.1,0,0.2
		c1,0.2,2,0.4,3,0.6c0.2,0,0.4,0.1,0.5,0.2c0.1,0.2,0.1,0.4,0.1,0.5C339.1,445.9,338.1,447.1,336.8,447.5z"/>
	<path class="st1" d="M360.7,450.4c-0.8-0.9-2.4-0.3-3.5-0.8c0-0.7,0.5-1.4,1-1.9c1.5-1.6,3.8-4.6,0.9-5.5c-1.7-0.5-5.3,0.2-6.7,1.3
		c-3.4,2.6-2.7,10.2-2.7,13.9c0,0.2,0,0.5,0.1,0.7c0.1,0.2,0.3,0.4,0.5,0.5c0.9,0.7,2.2,0.6,3.3,0.4c3.3-0.7,6.1-3.3,7.1-6.5
		C361,451.8,361.1,451,360.7,450.4z M354.1,444.6c0.5,0,1,0,1.6,0c0.2,0,0.4,0,0.5,0.1c0.1,0.1,0.1,0.3,0.1,0.5
		c-0.1,1.7-1.1,3.3-2.5,4.1c0-1.4,0-2.9-0.1-4.3L354.1,444.6z M355.1,455.4c-0.4,0.2-0.8,0.3-1.2,0.3c-0.6-0.1-1.1-0.7-1.2-1.3
		c-0.1-0.6,0.1-1.3,0.2-1.9l-0.1-1c1.6-0.1,3.1,0,4.7,0.3c0.2,0,0.4,0.1,0.5,0.2c0.1,0.1,0.1,0.4,0.1,0.5
		C358,453.9,356.4,454.8,355.1,455.4z"/>
	<path class="st1" d="M363.1,450.5c0,1.4,0,3,0.8,4.2c0.7,1.1,2,1.7,3.3,2c0.6,0.1,1.2,0.2,1.8,0.1c1.3-0.2,2.3-1.2,3-2.2
		c2.2-3.1,3.1-7.1,2.4-10.9c-0.1-0.6-0.3-1.2-0.7-1.7c-0.4-0.5-1.1-0.8-1.7-0.5c-0.9,0.4-1,1.6-1,2.5c-0.1,2.6-0.9,5.2-2.3,7.4
		c-0.5,0.7-1.2,1.4-2,1.1c-0.3-0.1-0.6-0.4-0.8-0.7c-0.7-1.1-0.7-2.5-0.7-3.8c0-1.8,0.2-3.7,0-5.4
		C361.8,442,363.1,448.5,363.1,450.5z"/>
	<path class="st1" d="M377.8,442.7c-1.2,1.1-1.5,2.8-1.6,4.4c0,0.4,0,0.9,0.2,1.3c0.2,0.4,0.6,0.7,1,1c0.8,0.7,1.6,1.5,2.2,2.4
		c0.5,0.8,1,1.8,0.5,2.6c-0.4,0.7-1.4,0.9-2.2,0.6c-0.7-0.4-1.2-1.2-1.3-2c-0.7,0.2-1.4,0.7-1.9,1.2c-0.2,0.2-0.4,0.5-0.4,0.8
		c0,0.2,0.1,0.3,0.2,0.4c1.1,1.5,2.9,2.6,4.7,2.7c1.9,0.1,3.8-0.8,4.8-2.4c1-1.6,1.1-3.7,0.1-5.3c-0.6-1-1.6-1.7-2.4-2.6
		c-0.8-0.9-1.4-2.1-1-3.2c1.1-0.4,2.5,0.2,2.9,1.2c0.2,0.4,0.3,0.9,0.7,1c1.7,0.5,0.9-4.3-0.2-5.1
		C382.7,440.7,379.2,441.5,377.8,442.7z"/>
	<path class="st1" d="M388.2,456.7c0,0.4,0,0.7,0.2,1.1c0.2,0.3,0.5,0.6,0.9,0.5c0.2,0,0.3-0.2,0.5-0.3c1-0.9,1.2-2.4,1.3-3.8
		c0.1-1.6,0.6-13.4-2-12.4C386.9,442.7,388.2,454.5,388.2,456.7z"/>
	<path class="st1" d="M395.7,456c0.1,0.4,0.3,0.8,0.7,1c0.4,0.2,0.9-0.1,1.1-0.6c0.2-0.4,0.2-0.9,0.2-1.4c-0.1-1.8-0.2-3.5-0.3-5.3
		c1.9,2.1,3.8,4.1,5.7,6.2c0.4,0.4,0.8,0.8,1.3,0.7c0.4-0.1,0.7-0.4,0.9-0.8c1.4-2.2,1.4-5.1,1.1-7.7c-0.2-1.8-0.5-3.5-0.9-5.2
		c-0.2-1-0.6-2.2-1.6-2.4c-0.4-0.1-0.8,0.1-1,0.5c-0.1,0.2-0.1,0.4-0.1,0.5c0,1.9-0.2,3.8-0.6,5.7c0,0.1-0.1,0.3-0.2,0.4
		c-0.2,0.1-0.5-0.1-0.6-0.3c-1.4-1.8-2.6-3.8-3.9-5.7c-1.1-1.7-1.7-2-2.6,0.1C393.4,445.6,394.6,452.2,395.7,456z"/>
	<path class="st1" d="M407.5,456.9c1.9,0,3.8-0.2,5.6-0.6c0.3-0.1,0.7-0.2,0.9-0.4c0.2-0.2,0.3-0.6,0.1-0.9c-0.9,0-1.9,0-2.8-0.1
		c-0.4,0-0.7-0.1-0.9-0.4c-0.1-0.2-0.1-0.5-0.1-0.8c0.1-1.2,0.4-2.6,1.6-3c0.6-0.2,1.2-0.1,1.8-0.3c0.6-0.1,1.1-0.7,0.9-1.3
		c-0.1-0.3-0.4-0.4-0.6-0.6c-0.8-0.4-1.6-0.5-2.4-0.4c-0.5,0-1.1,0.1-1.4-0.3c-0.2-0.3-0.2-0.6-0.1-0.9c0.1-1.3,0.5-2.5,1-3.7
		c0.1-0.2,0.1-0.3,0.3-0.4c0.2-0.1,0.4-0.1,0.6-0.1c1.3,0,2.5,0,3.8,0c0-0.4,0-0.9,0-1.3c-3.6-0.1-6.9-1.5-7.2,2.9
		C407.9,448.4,407.7,452.6,407.5,456.9z"/>
	<path class="st1" d="M421.4,442c-0.6,0-1.3,0-1.8,0.2c-1.4,0.5-2.1,2.1-2.2,3.6c0,0.3,0,0.6,0.1,0.8c0.1,0.3,0.4,0.5,0.6,0.7
		c1.7,1.6,2.9,3.6,3.4,5.9c0.1,0.5,0.1,1.2-0.3,1.5c-0.4,0.3-0.9,0.2-1.3,0c-0.4-0.3-0.6-0.6-0.9-1c-0.3-0.4-0.6-0.9-0.8-1.3
		c-0.3-0.4-0.6-0.9-1.1-1c-0.8-0.3-1.7,0.5-1.8,1.4c0,0.9,0.6,1.7,1.3,2.1c0.7,0.5,1.6,0.7,2.4,1.1c1.4,0.6,3,1.4,4.3,0.7
		c0.7-0.4,1-1.2,1.2-2c0.6-2.4-0.1-5-1.8-6.7c-0.5-0.5-1-0.9-1.3-1.4c-0.3-0.6-0.4-1.3,0-1.8c0.4-0.5,1.1-0.5,1.7-0.4
		c1,0.2,1.9,0.9,2.5,1.6C426.6,442.5,424,442.1,421.4,442z"/>
	<path class="st1" d="M428,444.3c-0.7,1.1-0.7,2.5-0.3,3.7c0.4,1.2,1.1,2.3,1.8,3.4c0.3,0.5,0.7,1.1,0.7,1.7c0,0.6-0.4,1.3-1,1.3
		c-0.7,0-1.1-0.7-1.4-1.3c-0.5-0.7-1.1-1.2-1.9-1.6c0,0.9,0,1.8-0.1,2.6c0,0.3,0,0.6,0.1,0.8c0.2,0.3,0.5,0.5,0.8,0.6
		c0.9,0.4,1.8,0.8,2.7,1c1,0.1,2,0,2.7-0.7c0.8-0.7,1.1-1.8,1.2-2.8c0.1-1.1,0.1-2.2-0.4-3.1c-0.8-1.5-2.5-2.4-2.6-4.1
		c0-0.6,0.3-1.2,0.9-1.3c0.8,0,1,1.2,1.6,1.7c1.8,1.7,3.6-2.2,1.8-3.6C432.9,441.4,429.1,442.6,428,444.3z"/>
	<path class="st1" d="M437.9,453.8c1.5-2,2.6-4.4,3.1-6.9c0.2-1.2,0.3-2.4,0-3.5c-0.2-0.7-1.1-2.2-2.1-2c-1.2,0.3-0.8,2.1-0.9,3
		C437.9,447.5,437.8,450.6,437.9,453.8z"/>
	<path class="st1" d="M438,456.6c-0.8-0.5-2,0.2-2.1,1.1s1.2,1.7,2,1.2c0.8-0.5,0.9-1.6,0.9-2.6c0-0.3-0.2-0.7-0.4-0.6"/>
	<path class="st1" d="M310.2,406.9c0.6,0,1.3,0,1.8,0.4c0.5,0.4,0.7,1.3,0.2,1.6c-1.7,0.6-3.4,1.1-5.2,1.3
		c-0.1,4.8-0.5,9.7-1.2,14.5c-0.1,0.4-0.1,0.9-0.4,1.2c-0.3,0.3-0.8,0.5-1.1,0.2c-0.2-0.2-0.2-0.6-0.2-0.9c0.1-4.4,0.3-8.9,0.4-13.3
		c0-0.2,0-0.4-0.1-0.5c-0.1-0.2-0.3-0.2-0.5-0.3c-1.4-0.4-6.7-2.5-3.1-4C303.1,406,307.7,406.8,310.2,406.9z"/>
</g>
<g id="Layer_4">
	<path class="st1" d="M117.1,239.1c2,19.8,4,39.6,6,59.4c14.6-9.6,29.1-19.1,43.7-28.7c2.9-1.9,5.8-3.8,9-4.9
		c3.4-1.2,7-1.4,10.5-1.5c6.6-0.2,13.4,0,19.5,2.5c3.8,1.5,7.2,3.9,11,5.5c3.8,1.6,8.1,2.4,11.9,0.8c-1.8-7.7,3.1-15.5,2.3-23.3
		c-0.8-7.8-7-13.8-12.8-19c-1.1-1-2.1-1.9-3.5-2.4c-3-1.1-6.2,0.6-9.1,1.9c-9.3,4.1-19.8,4.6-29.9,3.1s-19.6-5.1-29.1-8.8
		c-5.2-2-10.3-4.1-15.4-6.3c-3.2-1.4-11.6-7-15-6.2C111.6,212.1,116.6,234.1,117.1,239.1z"/>
</g>
<g id="Layer_3">
	<path class="st1" d="M102.2,324.3c0.6,13.7,1.3,27.3,1.9,41c0.6,13.4,1.3,26.9,4.5,39.9c0.8-12.5,0.6-25,0-37.4
		c-0.6-14.3-1.5-28.6-2.4-42.9c-0.6-9.1-1.2-18.3-1.7-27.4c-1.9-30.1-3.8-60.1-6.2-90.2c1.4,14,2.8,28,4.2,41.9
		c1.4,13.7,2.8,27.5,4.1,41.3c1.1,11.3,2.1,22.7,2.8,34.1c1.7,26.9,1.8,53.9,0.2,80.9c-0.1,1-0.1,2,0.3,2.9c0.4,0.8,1.1,1.3,1.8,1.8
		c2.2,1.7,4.4,3.4,6.7,5.1c3.2-64.8-8.4-129.3-12.5-194c1.9,13.7,3.8,27.5,5.6,41.2c0.9,6.5,1.8,13,2.6,19.5
		c5.6,44,8.8,88.3,9.3,132.7c0,2.2,0.2,4.9,2.1,6.1c1.9-14.2,3.8-28.5,2.6-42.8c-0.7-7.9-2.3-15.7-3.4-23.5
		c-3.3-23.5-1.9-47.6-7.3-70.7c-1.2-5.1-2.8-10.2-3.5-15.4c-2.2-14.9,1.8-30.4-2.5-44.8c-2.4-8.1-7.3-16.3-5.1-24.5
		c3.8-0.4,6.6-4.1,6.9-7.9c0.4-5.2-3.5-10.3-8.5-11.3c-5.1-1-10.7,2.3-12.2,7.3c-2.2,6.9,4.5,10.8,5,17c0.8,9.5,0.4,19.4,0.7,28.9
		c0.6,19.5,1.4,38.9,2.2,58.4C101.1,302.4,101.6,313.4,102.2,324.3z"/>
	<path class="st2" d="M107.2,185.7c-0.6,3.8-0.8,7.7-0.4,11.6c2.9-3.5,2.9-9.2-0.2-12.7"/>
	<g>
		<g>
			<path class="st2" d="M126.6,222.2c1.9,0,1.9-3,0-3C124.7,219.2,124.7,222.2,126.6,222.2L126.6,222.2z"/>
		</g>
	</g>
	<g>
		<g>
			<path class="st2" d="M120.5,228.3c1.9,0,1.9-3,0-3C118.6,225.3,118.6,228.3,120.5,228.3L120.5,228.3z"/>
		</g>
	</g>
	<g>
		<g>
			<path class="st2" d="M119.1,216.6c1.9,0,1.9-3,0-3C117.2,213.6,117.2,216.6,119.1,216.6L119.1,216.6z"/>
		</g>
	</g>
	<g>
		<g>
			<path class="st2" d="M128.5,231.5c1.9,0,1.9-3,0-3C126.5,228.5,126.5,231.5,128.5,231.5L128.5,231.5z"/>
		</g>
	</g>
	<g>
		<g>
			<path class="st2" d="M136,229.2c1.9,0,1.9-3,0-3C134,226.2,134,229.2,136,229.2L136,229.2z"/>
		</g>
	</g>
	<g>
		<g>
			<path class="st2" d="M125.2,241.8c1.9,0,1.9-3,0-3C123.3,238.8,123.3,241.8,125.2,241.8L125.2,241.8z"/>
		</g>
	</g>
	<g>
		<g>
			<path class="st2" d="M135.5,238.1c1.9,0,1.9-3,0-3C133.6,235.1,133.6,238.1,135.5,238.1L135.5,238.1z"/>
		</g>
	</g>
	<g>
		<g>
			<path class="st2" d="M148.1,237.1c1.9,0,1.9-3,0-3C146.2,234.1,146.2,237.1,148.1,237.1L148.1,237.1z"/>
		</g>
	</g>
	<g>
		<g>
			<path class="st2" d="M143,246.5c1.9,0,1.9-3,0-3C141,243.5,141,246.5,143,246.5L143,246.5z"/>
		</g>
	</g>
	<g>
		<g>
			<path class="st2" d="M136,251.2c1.9,0,1.9-3,0-3C134,248.2,134,251.2,136,251.2L136,251.2z"/>
		</g>
	</g>
	<g>
		<g>
			<path class="st2" d="M128,252.1c1.9,0,1.9-3,0-3C126.1,249.1,126.1,252.1,128,252.1L128,252.1z"/>
		</g>
	</g>
	<g>
		<g>
			<path class="st2" d="M126.1,270.8c1.9,0,1.9-3,0-3C124.2,267.8,124.2,270.8,126.1,270.8L126.1,270.8z"/>
		</g>
	</g>
	<g>
		<g>
			<path class="st2" d="M134.1,262.9c1.9,0,1.9-3,0-3C132.2,259.9,132.1,262.9,134.1,262.9L134.1,262.9z"/>
		</g>
	</g>
	<g>
		<g>
			<path class="st2" d="M143.9,259.6c1.9,0,1.9-3,0-3C142,256.6,142,259.6,143.9,259.6L143.9,259.6z"/>
		</g>
	</g>
	<g>
		<g>
			<path class="st2" d="M136,275.5c1.9,0,1.9-3,0-3C134,272.5,134,275.5,136,275.5L136,275.5z"/>
		</g>
	</g>
	<g>
		<g>
			<path class="st2" d="M126.1,289c1.9,0,1.9-3,0-3C124.2,286,124.2,289,126.1,289L126.1,289z"/>
		</g>
	</g>
	<g>
		<g>
			<path class="st2" d="M146.7,277.8c1.9,0,1.9-3,0-3C144.8,274.8,144.8,277.8,146.7,277.8L146.7,277.8z"/>
		</g>
	</g>
	<g>
		<g>
			<path class="st2" d="M157,265.2c1.9,0,1.9-3,0-3C155.1,262.2,155.1,265.2,157,265.2L157,265.2z"/>
		</g>
	</g>
	<g>
		<g>
			<path class="st2" d="M153.7,252.1c1.9,0,1.9-3,0-3C151.8,249.1,151.8,252.1,153.7,252.1L153.7,252.1z"/>
		</g>
	</g>
	<g>
		<g>
			<path class="st2" d="M172.4,247.4c1.9,0,1.9-3,0-3C170.5,244.4,170.5,247.4,172.4,247.4L172.4,247.4z"/>
		</g>
	</g>
	<g>
		<g>
			<path class="st2" d="M159.3,244.2c1.9,0,1.9-3,0-3C157.4,241.2,157.4,244.2,159.3,244.2L159.3,244.2z"/>
		</g>
	</g>
	<g>
		<g>
			<path class="st2" d="M166.8,254.4c1.9,0,1.9-3,0-3C164.9,251.4,164.9,254.4,166.8,254.4L166.8,254.4z"/>
		</g>
	</g>
	<g>
		<g>
			<path class="st2" d="M166.8,266.1c1.9,0,1.9-3,0-3C164.9,263.1,164.9,266.1,166.8,266.1L166.8,266.1z"/>
		</g>
	</g>
	<g>
		<g>
			<path class="st2" d="M179.9,254c1.9,0,1.9-3,0-3C178,251,178,254,179.9,254L179.9,254z"/>
		</g>
	</g>
	<g>
		<g>
			<path class="st2" d="M179,239.5c1.9,0,1.9-3,0-3C177,236.5,177,239.5,179,239.5L179,239.5z"/>
		</g>
	</g>
	<g>
		<g>
			<path class="st2" d="M192.1,244.2c1.9,0,1.9-3,0-3C190.1,241.2,190.1,244.2,192.1,244.2L192.1,244.2z"/>
		</g>
	</g>
	<g>
		<g>
			<path class="st2" d="M190.2,252.6c1.9,0,1.9-3,0-3C188.2,249.6,188.2,252.6,190.2,252.6L190.2,252.6z"/>
		</g>
	</g>
	<g>
		<g>
			<path class="st2" d="M200.9,238.1c1.9,0,1.9-3,0-3C199,235.1,199,238.1,200.9,238.1L200.9,238.1z"/>
		</g>
	</g>
	<g>
		<g>
			<path class="st2" d="M213.1,236.7c1.9,0,1.9-3,0-3C211.2,233.7,211.2,236.7,213.1,236.7L213.1,236.7z"/>
		</g>
	</g>
	<g>
		<g>
			<path class="st2" d="M208.4,243.2c1.9,0,1.9-3,0-3C206.5,240.2,206.5,243.2,208.4,243.2L208.4,243.2z"/>
		</g>
	</g>
	<g>
		<g>
			<path class="st2" d="M201.9,249.3c1.9,0,1.9-3,0-3C199.9,246.3,199.9,249.3,201.9,249.3L201.9,249.3z"/>
		</g>
	</g>
	<g>
		<g>
			<path class="st2" d="M222,248.8c1.9,0,1.9-3,0-3C220,245.8,220,248.8,222,248.8L222,248.8z"/>
		</g>
	</g>
	<g>
		<g>
			<path class="st2" d="M223.4,262.4c1.9,0,1.9-3,0-3C221.4,259.4,221.4,262.4,223.4,262.4L223.4,262.4z"/>
		</g>
	</g>
	<g>
		<g>
			<path class="st2" d="M224.3,270.3c1.9,0,1.9-3,0-3C222.4,267.3,222.4,270.3,224.3,270.3L224.3,270.3z"/>
		</g>
	</g>
	<g>
		<g>
			<path class="st2" d="M214,268c1.9,0,1.9-3,0-3C212.1,265,212.1,268,214,268L214,268z"/>
		</g>
	</g>
	<g>
		<g>
			<path class="st2" d="M200.9,262.9c1.9,0,1.9-3,0-3C199,259.9,199,262.9,200.9,262.9L200.9,262.9z"/>
		</g>
	</g>
	<g>
		<g>
			<path class="st2" d="M214,257.7c1.9,0,1.9-3,0-3C212.1,254.7,212.1,257.7,214,257.7L214,257.7z"/>
		</g>
	</g>
	<path class="st3" d="M127.1,327.9c0,1.2,0.3,2.8,1.5,3.1c0.5,0.1,1-0.1,1.5-0.3c22.5-8.8,41.5-24.7,58.1-42.2
		c2.4-2.5,4.8-5.1,8-6.6c3-1.4,6.5-1.6,9.8-1.6c9.1,0.1,18.3,1.5,27,4.4c6.1,2,12.2,4.8,18.6,5.1c6.4,0.3,13.6-2.6,15.9-8.7
		c1-2.8,1.2-6.3,3.7-7.9c1.2-0.7,2.6-0.8,3.9-0.9c7.9-0.4,15.8-0.8,23.7-1.3c1.9-5.6,3.9-11.3,7.2-16.3c3.3-5,8.1-9.2,13.9-10.4
		c10-2.2,20.6,4.5,30.4,1.4c0.1-4-3.6-7.2-7.4-8.3s-7.9-0.7-11.9-0.8c-6.3-0.2-12.6-1.7-18.9-1.5s-13.1,2.9-15.8,8.7
		c1.7,1.4,3.5,2.8,5.2,4.2c-3.6-0.9-7.2,1.9-9.2,5.1c-2,3.2-3.2,6.9-5.8,9.6c-5.3,5.7-14.2,5.2-22,5.4c-2.5,0.1-5.3,0.4-7,2.2
		c-1.6,1.7-1.9,4.2-2.9,6.3c-2.4,5-8.6,7.2-14.1,6.7c-5.5-0.5-10.6-3-15.8-5.1c-9.8-3.9-20.2-6.3-30.7-7c-2.1-0.1-4.3-0.2-6.3,0.5
		c-1.8,0.7-3.4,1.9-4.9,3.1c-11.6,9.4-23.9,17.9-36.7,25.6c-4.6,2.8-14.6,5.9-17.7,10.2C125.3,314.8,127.1,323.1,127.1,327.9z"/>
	<path class="st3" d="M248.1,218.2c6.8-4.4,14-9,22.1-10.1c2.5-0.3,5-0.3,7.4-1.1c2.2-0.8,4.2-2.2,6.3-3.4c7-4,15.4-4.9,23.4-4
		c8,0.9,15.7,3.4,23.4,5.9c2,0.7,4.1,1.3,5.7,2.7c1.6,1.4,2.7,3.6,2,5.7c-15.2,2.2-30-11.7-44.8-7.5c-6.2,1.8-11.2,6.5-17.5,7.9
		c-3.9,0.9-8.1,0.4-11.6,2.3c-4.1,2.2-6,6.9-9.3,10.2c-3.4,3.4-15.9,8.8-20.6,5.2C229,227.7,245,220.2,248.1,218.2z"/>
	<path class="st4" d="M242.8,236.9c5-2.8,11.2-3.2,16.5-1c4.5-6.7,11.8-11.4,19.8-12.7c1.9-0.3,4-0.5,5.7-1.3
		c1.8-0.9,3.2-2.4,4.8-3.6c5.5-4.1,12.8-4.6,19.7-4.9c8.5-0.4,17.2-0.7,25.2,2.1c2.5,0.9,5.1,2.1,6.6,4.3s1.8,5.5-0.1,7.4
		c-9.7-0.6-19.5-1.2-29.2-1.8c-2-0.1-4-0.2-5.9,0.3c-1.7,0.5-3.2,1.5-4.8,1.8c-1.9,0.4-3.8,0.1-5.7,0.4c-5.7,0.9-9.2,7.2-14.8,8.5
		c-3.1,0.7-6.3-0.2-9.5-0.2c-6,0.1-11.3,3.8-16.2,7.4c-4.2,3.1-8.4,6.2-12.7,9.3c-1.7,1.2-3.5,2.5-5.6,2.3c-3.5-0.4-6.2-5.8-5.2-9
		C232.7,242.6,239.8,238.6,242.8,236.9z"/>
	<path class="st4" d="M242.8,238c5-2.8,11.2-3.2,16.5-1c4.5-6.7,11.8-11.4,19.8-12.7c1.9-0.3,4-0.5,5.7-1.3c1.8-0.9,3.2-2.4,4.8-3.6
		c5.5-4.1,12.8-4.6,19.7-4.9c8.5-0.4,17.2-0.7,25.2,2.1c2.5,0.9,5.1,2.1,6.6,4.3s1.8,5.5-0.1,7.4c-9.7-0.6-19.5-1.2-29.2-1.8
		c-2-0.1-4-0.2-5.9,0.3c-1.7,0.5-3.2,1.5-4.8,1.8c-1.9,0.4-3.8,0.1-5.7,0.4c-5.7,0.9-9.2,7.2-14.8,8.5c-3.1,0.7-6.3-0.2-9.5-0.2
		c-6,0.1-11.3,3.8-16.2,7.4c-4.2,3.1-8.4,6.2-12.7,9.3c-1.7,1.2-3.5,2.5-5.6,2.3c-3.5-0.4-6.2-5.8-5.2-9
		C232.7,243.7,239.8,239.6,242.8,238z"/>
	<path class="st3" d="M170.8,316.6c7.6-9.4,15-19.7,25.8-25.1c13.7-6.8,29.9-4.4,45-1.9c6.2,1,12.4,2.1,18.5,3.1
		c2.5,0.4,5.1,0.8,7.5,0.1c5-1.6,7-7.5,10.9-11.1c6-5.5,15.3-4.3,23.4-4.6c1.8-0.1,3.6-0.2,5.1-1.2c1.5-1,2.4-2.6,3.3-4.2
		c6.2-10.2,17.5-17.2,29.4-18.2c7.9-0.7,17.2,2.3,19.7,9.8c-6.7-1.4-13.6-1.8-20.4-1.4c-1.6,0.1-3.2,0.3-4.6,1.1
		c-1.4,0.9-2.4,2.3-3.3,3.7c-2.9,4.5-5.8,9-8.7,13.4c-2.5,3.8-5.2,7.8-9.5,9.2c-4,1.3-8.4-0.1-12.6-0.9c-4.2-0.9-9.1-1-12,2
		c-2.5,2.6-3.1,7-6.2,8.7c-1.8,1-4.1,0.8-6.2,0.6c-20.1-2.2-40.1-4.3-60.2-6.5c-21.8,30.2-51.6,54.5-85.6,69.8
		c0.8-0.4-1.1-14.2,0.5-16.8c2.2-3.5,7.3-4.1,10.9-5.5C153.5,336,162.8,326.5,170.8,316.6z"/>
	<path class="st3" d="M395.9,279.3c-1-1.2-2.2-2.1-3.5-3c-2.7-1.9-5.8-3.7-9-2.9c0,0.1,0,0.3,0,0.4c-5-0.8-8.6-6.8-13.7-8.8
		c-2.8-1.1-5.8-0.9-8.8-0.6c-9.5,0.8-20,2.3-25.8,9.8c-4,5.2-5.4,13-11.4,15.8c-4,1.8-8.6,0.7-13,0.8c-6,0.3-11.8,3.3-15.4,8
		c-1.5,1.9-2.7,4.2-4.7,5.6c-2.2,1.5-4.9,1.7-7.5,1.7c-15.6-0.1-30.7-6.7-46.2-5.6c-2.8,0.2-5.7,0.7-8.3,1.8c-2.7,1.1-5,2.9-7.3,4.7
		c-14.3,11.1-28,23.1-40.9,35.8c-6.9,6.8-13.8,14-22.5,18.3c-3.8,1.8-7.8,3.1-11.9,4.1c-3.1,0.7-8.7,0.5-11.4,2.2
		c-5.3,3.5-2.3,14.1-2,19.4c20.1-4.6,40.9-10.5,56.2-24.4c5.5-5,10.1-10.9,14.7-16.7c7.6-9.7,15.2-19.4,22.8-29.1
		c2.7-3.4,5.5-6.9,9.4-8.8c5.9-2.8,12.8-1.2,19.1,0.4c7.7,2,15.5,4,23.2,6c6.9,1.8,14.6,3.5,20.8,0.1c6.5-3.5,9.7-11.7,16.4-14.8
		c7.5-3.5,16,0.4,23.6,3.7c5,2.1,10.2,4,15.7,4.3c5.4,0.3,11.2-1.2,15-5c5.6-5.5,6.5-14.6,12.4-19.7c0.9-0.7,1.8-1.4,2.5-2.3
		c0.6,0.2,1.3,0.1,1.9,0.1c1.6-0.1,3.1-0.2,4.7,0.1c1.2,0.2,4.3,3.1,4.9,3C398.4,283.2,396.6,280.1,395.9,279.3z M368.1,278.2
		c-4,2.5-7.8,5.6-9.7,10c-1.3,3.1-2.1,7.2-5.3,8.3c-0.9,0.3-1.9,0.3-2.9,0.2c-4.9-0.1-9.8-0.3-14.6-0.4c5.1-2.6,10.1-6.1,12.4-11.4
		c1-2.2,1.4-4.6,2.5-6.7c2.3-4.5,7.6-7.1,12.5-6.3c2.1,0.3,5.5,1.2,7.2,2.5C372.5,276.2,369.9,277,368.1,278.2z"/>
	<path class="st3" d="M255.4,243.8c2-1.8,3.8-3.7,6.2-4.8c4.3-2,9.4-0.9,14.2-1.4c7.2-0.7,13.4-5.1,20-8.1c12.8-5.8,27.8-6.4,41-1.7
		c1.1,0.4,2.3,0.8,3.3,0.3c0.5-0.2,0.9-0.7,1.3-1.1c1.2-1.6,1.6-3.7,1.2-5.6c-7.6-5.7-17.2-8.5-26.8-8.7c-9.5-0.1-19,2.3-27.7,6.2
		c-3.7,1.7-7.2,3.6-11.1,4.8c-2.5,0.8-5,1.3-7.3,2.6c-2.8,1.6-4.7,4.3-6.9,6.7c-0.8,0.8-1.6,1.6-2.7,2.1c-1,0.4-2.2,0.5-3.3,0.5
		c-3.4,0-6.8-0.1-10.1-0.5c-0.4-0.1-4.3,4.7-4.9,5.3c-1.6,1.4-3.5,2.4-5.1,3.8c-3.6,3.2-1.3,7.3,0.7,11
		C243.7,252.7,250.4,248.2,255.4,243.8z"/>
	<path class="st3" d="M233,271.1c0,0.5,0,1.1,0.2,1.5c0.2,0.4,0.6,0.7,1,1c1.9,1.3,3.8,2.6,5.7,3.9c3.9-4.2,7.8-8.3,11.8-12.5
		c0.4-0.4,0.8-0.9,1.3-1.1c0.7-0.3,1.4-0.2,2.1-0.1c4.6,0.6,9.3,1.3,13.9,1.9c1.9-4,3.9-8,6.1-11.9c1.2-2.2,2.5-4.5,4.5-6.1
		c3.7-3,9-3.1,13.5-4.7c-5.8-1-11.7-1.8-17.6-2.5c-1.2-0.1-2.4-0.3-3.6,0.1c-1.3,0.4-2.3,1.5-3.3,2.5c-4.4,4.6-8.8,9.2-13.1,13.9
		c-0.5,0.6-1.1,1.1-1.8,1.4c-0.9,0.4-1.8,0.3-2.7,0.3c-2.1-0.1-4.1-0.3-6.2-0.4c-1.8-0.1-3.5-0.2-5.3,0.1
		C232.4,259.9,233.3,265.3,233,271.1z"/>
</g>
</svg>
