<?xml version="1.0" encoding="utf-8"?>
<!-- Generator: Adobe Illustrator 22.1.0, SVG Export Plug-In . SVG Version: 6.00 Build 0)  -->
<svg version="1.1" id="smiley" xmlns="http://www.w3.org/2000/svg" xmlns:xlink="http://www.w3.org/1999/xlink" x="0px" y="0px"
	 viewBox="0 0 500 500" style="enable-background:new 0 0 500 500;" xml:space="preserve">
<style type="text/css">
	.st0{fill:#FFDF1D;stroke:#2784B8;stroke-miterlimit:10;}
	.st1{fill:#FFFFFF;stroke:#2784B8;stroke-miterlimit:10;}
	.st2{fill:#2784B8;stroke:#2784B8;stroke-miterlimit:10;}
	.st3{fill:#2784B8;}
</style>
<path class="st0" d="M267.8,18.9c36.5,3.7,71.6,19.8,98.1,45c6,5.7,11.5,11.8,16.1,18.7c5.7,8.6,9.7,18.3,12.9,28.1
	c5.8,17.6,9.2,36,10.3,54.5c0.5,9.7,0.4,19.5-2.2,28.8c-2.9,10.5-8.8,19.8-14.6,29c-8.3,13.1-16.7,26.3-28,36.8
	c-22.8,21.2-54.5,29.3-85,35.3c-12.2,2.4-24.5,4.6-37,4.6c-27.2-0.1-53.3-11.2-76.6-25.3c-8.3-5-16.3-10.4-23.7-16.6
	c-32.4-27.3-50.2-71-46.2-113.2C98.1,79.8,148.7,39.7,208,23.9C227.4,18.7,247.8,16.9,267.8,18.9z"/>
<path class="st1" d="M194.9,141.4c2.1,3.3,5.4,6.8,9.3,6.1c2.5-0.4,4.3-2.5,5.8-4.5c13.5-18.4,13-44.2,4.8-65.5
	c-10.5-27.4-25.6-7.5-29.4,10.9C181.7,106.5,184.9,125.9,194.9,141.4z"/>
<path class="st1" d="M277.9,73.4c-6,20-3.1,42.4,7.8,60.2c1.5,2.5,3.4,5,6.1,6.1c4.2,1.6,9.2-1,11.6-4.9c2.4-3.9,2.9-8.6,3.1-13.1
	c1-15.3,0.6-31.1-4-45.8c-1.4-4.3-5.3-18-10.4-19.2C284.6,54.8,279.5,68.1,277.9,73.4z"/>
<path class="st2" d="M283,89.2c-1.5,3.8-2.8,7.7-3.2,11.8c-0.6,6.4,1,12.8,2.7,19.1c0.9,3.5,1.9,7,3,10.4c1.2,3.8,2.9,7.9,6.6,9.4
	c4,1.7,8.8-0.8,11.1-4.4c2.3-3.7,2.7-8.2,2.8-12.6c0.1-12.2-3-22.8-7.1-34.1c-1.2-3.3-1.7-6.2-5.4-7.4
	C287.7,79.4,284.8,84.6,283,89.2z"/>
<path class="st2" d="M194.3,93.6c-4.4,7.6-5.7,16.6-6,25.3c-0.1,3.3-0.1,6.6,0.9,9.7c1.3,4.2,4.3,7.8,6.2,11.8
	c1.3,2.7,2.2,5.9,4.9,7.3c3.4,1.8,7.6-0.6,10.2-3.5c4.8-5.3,7.2-12.5,7.6-19.7c0.4-7.2-1-14.3-3.1-21.2
	C212.5,94.8,202.2,80.2,194.3,93.6z"/>
<path class="st3" d="M164.7,234.1c18.1,18,42.2,29.9,67.5,33.4c8.6,1.2,17.3,1.4,26,1.6c6.6,0.1,13.2,0.1,19.7-1.2
	c8-1.6,15.5-5.3,22.6-9.2c18.3-10,35.5-22.4,48.7-38.6c13.1-16.2,21.8-36.5,21.6-57.3c-6.7,16.9-14.3,33.8-26.6,47.1
	c-10.3,11.1-23.4,19.1-36.4,26.9c-3.8,2.3-7.6,4.6-11.9,6c-2.9,0.9-5.9,1.4-8.9,1.8c-14.8,2.1-29.6,3.7-44.5,4.6
	c-12.8,0.8-25.9,1.2-38.4-1.7c-17.8-4.1-33.7-14.7-46-28.3c-10.2-11.3-16.1-24.5-23.9-37.3C138.6,201.4,150.7,220.2,164.7,234.1z"/>
<path class="st3" d="M83.9,243.6c-1.6-2.1-3.6-4-5.7-5.5c-0.6-0.4-1.3-0.8-2.1-0.9c-0.8,0-1.5,0.4-2.1,0.8
	c-3.6,2.3-7.3,4.5-10.9,6.8c-0.3,0.2-0.6,0.4-0.7,0.7c-0.1,0.4,0,0.7,0.2,1.1c1.8,4,3.8,8,6.1,11.8c0.4,0.7,0.9,1.4,1.7,1.5
	c0.9,0.1,1.6-0.5,2.3-1.1c2.3-2.1,5.1-3.8,8-4.9c1.4-0.5,2.9-1,4-2s1.4-3,0.3-4c2.8,5.9,5.6,11.8,8.4,17.7c-1.1,0.4-1.8-1.2-2.6-2.1
	c-1.5-1.6-4.1-0.9-6.1-0.1c-8.4,3.5-16.4,7.8-24.1,12.7c-1,0.7-2.1,1.4-2.8,2.4c-1.5,2.3-0.5,5.5-1.8,7.9
	c-3.8-6.7-7.6-13.4-11.3-20.2c0.7-0.6,1.4,0.8,1.8,1.6c0.7,1.6,2.8,2.3,4.6,2c1.8-0.3,3.3-1.4,4.8-2.4c2.7-1.9,5.3-3.8,8-5.7
	c0.7-0.5,1.5-1.1,1.5-2c0-0.5-0.3-1-0.6-1.4c-2-3.2-4-6.4-6.1-9.7c-3.9,2.3-7.7,4.7-11.6,7c-0.6,0.4-1.3,0.8-1.7,1.4
	c-1.6,2.1,0,5.2-0.7,7.7c-1.6,0.2-2.7-1.5-3.3-2.9c-2.4-5.1-4.9-10.2-7.3-15.3c1.9,0,2.7,3.1,4.6,2.9c0.5,0,0.9-0.3,1.3-0.5
	c8.2-5,16.4-10.1,24.5-15.1c2.2-1.4,4.7-2.9,5.8-5.4c0.9-2,0.6-5.3,3.4-3c2.2,1.7,3.9,6.5,5.3,8.9C80.6,237.3,81.9,241,83.9,243.6z"
	/>
<path class="st3" d="M105.8,297.8c0,3.3-1.2,6.4-2.3,9.5c-2.1,6.2-3.4,12.6-4.2,19.1c7.8-3.7,15.5-7.7,22.9-12.1
	c1.9-1.2,4.1-2.4,6.3-2.1c0.7,0.1,1.4,0.3,2.1,0.2s1.5-0.6,1.4-1.3c0-0.3-0.2-0.7-0.4-1c-2.5-3.8-6-6.9-10-8.9
	c0.5,2.5,0.9,5.3-0.3,7.6c-0.8,1.4-2.1,2.5-3.4,3.4c-2.3,1.6-4.8,3-7.5,4.1c0.9-4,2.2-7.9,3.7-11.7c0.2-0.5,0.4-1,0.9-1.2
	c1-0.3,2,1.3,3,0.8c1.2-1.4-0.1-3.5-1.5-4.8c-3.8-3.8-7.6-7.7-11.5-11.5c-0.6-0.6-0.6,3.7-0.6,4C105,293.9,105.8,295.7,105.8,297.8z
	"/>
<path class="st3" d="M151.4,322.1c-1.3-3.5-7-7.2-10.5-7.8c-2.8-0.4-5.7,0.5-8.1,2c-2.4,1.5-4.5,3.5-6.5,5.5c-1.2,1.2-2.5,2.5-3.2,4
	c-0.6,1.4-0.8,2.9-0.8,4.4c0,5.7,2.9,11.6,8.1,14.2c5.1,2.5,12.3,0.9,15-4.2c-2.5,0.3-4.9,0.6-7.4,0.9c-1.2,0.1-2.4,0.3-3.4-0.2
	c-1.8-0.9-2.3-3.1-2.4-5.1c-0.1-1.5-0.1-3.1,0-4.6c0.1-1.5,0.9-3.5,2.4-3.3c0.1,0.9,0.9,1.6,1.7,2c2.9,1.8,5.8,3.7,8.7,5.5
	c0.9,0.6,2,1.2,3,0.9C150.9,333.4,153,326.2,151.4,322.1z M144.7,327.5c-0.1,0.3-0.2,0.5-0.4,0.8c-0.3,0.4-0.9,0.5-1.3,0.5
	c-1.5,0.1-2.9-0.7-4-1.7c-0.7-0.7-2.9-2.8-2.7-3.9c0.2-1.1,3.1-2.2,4.1-2.6c1.3-0.6,2.8-0.9,4-0.1c1,0.7,1.3,2.1,1.3,3.4
	C145.4,325.1,145.1,326.4,144.7,327.5z"/>
<path class="st3" d="M99.2,281.3c-0.7-1.4-1.8-2.6-3-3.5c-3.4-2.8-6.1-3.5-10.2-3.4c-2.9,0-10.6,1-7.8,6.1c0.5,0.9,1.3,1.5,2.2,2
	c1.5,0.9,3.6,1.5,4.9,0.3c0.6-0.6,0.9-1.5,1.4-2.1c1.3-1.5,4.2-0.8,5,1c0.9,1.8,0,4.1-1.6,5.3c-1.6,1.2-3.8,1.4-5.8,1.1
	c-2-0.3-3.9-1.1-5.8-1.8c-1.9-0.7-3.9-1.4-5.9-1.3c-3,0.1-5.8,1.8-7.4,4.3c-0.4,0.7-0.8,1.5-0.9,2.3c-0.4,2.6,1.3,5.1,3.4,6.5
	c2.2,1.4,4.8,1.9,7.3,2.4c0,2.8,1.5,5.5,3.7,7c2.3,1.6,5.3,1.9,7.9,0.9c-2-0.3-3.6-2.2-3.4-4.2c7.7-3,15.2-9,16.5-17.2
	C100.1,285,100.1,283,99.2,281.3z M83.5,294.4c-0.6,1.1-1.4,2.3-2.6,2.7c-0.4,0.1-0.8,0.1-1.3,0.1c-2-0.1-4-1.1-4.9-2.9
	c-0.5-1.1-0.3-2.6,0.8-3.1c0.4-0.2,0.9-0.2,1.4-0.1c2,0.1,3.9,0.2,5.9,0.3C85.6,291.5,84.7,292.3,83.5,294.4z"/>
<path class="st3" d="M212.3,368.2c-1.5-0.8-2.9-1.8-3.7-3.2c-0.5-0.9-0.7-1.8-0.9-2.8c-0.5-2.1-0.9-4.1-1.4-6.2
	c-1.4-6.1-2.8-12.3-3.5-18.6c-0.4-4-0.5-8-1.6-11.9c-0.5-1.6-0.8-3.8-2.7-2.9c-1.4,0.7-3,3-4.2,4.1c-5.5,5.5-10.6,11.4-15.4,17.5
	c-2.6,3.4-5.1,6.9-7.5,10.5c-0.5,0.8-1.1,1.7-2,2.1c-0.5,0.3-1.2,0.3-1.8,0.4c-1.8,0.2-3.6,0.3-5.3,0.5c-0.4,0.5,0.2,1.2,0.8,1.5
	c4.9,3,10.8,4.5,16.6,4.2c0.5-1-0.4-2.2-1.4-2.7c-1-0.5-2.2-0.9-2.8-1.8c-0.8-1.4,0.3-3.2,1.3-4.5c1.1-1.4,2.4-2.8,4-3.4
	c0.9-0.3,1.8-0.3,2.7-0.3c2.9,0.1,5.8,0.9,8.7,1.7c0.4,0.1,0.8,0.2,1.1,0.5c0.3,0.2,0.4,0.6,0.6,0.9c1.2,2.8,1.6,5.9,1.2,8.9
	c-1.3-0.1-2.6,0-3.9,0.2c-0.7,0.2-1.6,0.5-1.6,1.3c-0.1,0.8,0.7,1.3,1.4,1.6c3.6,1.5,7.5,2.1,11.4,2.6c3.7,0.5,7.4,1,11.1,1.6
	C213.9,369.3,213,368.5,212.3,368.2z M194.2,347.2c-0.4,0.6-1.3,0.6-2,0.4c-2.9-0.6-5.7-1.2-8.6-1.7c0.1-0.7,0.5-1.3,1-1.9
	c1.1-1.5,4.6-6.8,6.6-6.7c2.2,0.1,2.6,6.9,3.1,8.5C194.3,346.1,194.5,346.7,194.2,347.2z"/>
<path class="st3" d="M244.9,361.5c0.2,2.4,0.1,5.4-1.9,6.7c-1.4,1-4,1.5-3.7,3.2c5.6-0.3,11.2-0.7,16.8-1c0.6-0.7-0.3-1.7-1.1-2.1
	c-1.7-0.9-3.3-1.8-5-2.8c-0.2-9.4-1.3-18.7-3.2-27.9c11.1,7.7,18.6,19.5,28.4,28.7c0.8,0.8,1.8,1.6,3,1.5
	c1.7-11.5-1.2-23.3-0.4-34.9c0.1-0.9,0.1-1.8,0.6-2.6c0.9-1.5,3.1-2,3.7-3.7c-4.8-1.1-9.9-0.6-14.3,1.6c1.8-0.4,3.6,0.9,4.4,2.5
	s0.9,3.5,1,5.3c0.2,4.5,0.3,9.1,0.5,13.6c-1.7-0.3-3-1.6-4.1-2.9c-4.1-4.7-8.2-9.4-11.7-14.6c-1-1.5-2-3-3.5-4
	c-2.1-1.4-4.8-1.3-7.3-1c-3,0.4-6.4,1.1-9.1,2.5c1.6,1,4.4,1,5.7,2.5c1.6,1.9,0.7,5.8,0.7,8.1C244.2,347.5,244.4,354.5,244.9,361.5z
	"/>
<path class="st3" d="M298.1,334c0.5-0.1,1-0.1,1.4,0.1c0.5,0.2,0.7,0.8,1,1.2c1.8,3.8,3.2,7.7,4.3,11.7c1,3.8,1.9,7.9,4.8,10.4
	c1,0.8,2.2,1.6,2.2,2.9c-2.7,1-5.5,2.1-8.2,3.1c-2.8,1.1-5.8,2.2-8.8,1.9c-0.2,0-0.4,0-0.5-0.2c-0.5-0.4-0.1-1.1,0.3-1.6
	c1.9-2.4,1.7-5.8,1.1-8.8c-0.7-3.8-2-7.5-3.7-11c-1.4-2.9-4.5-6-5.4-9c1.3-0.2,2.7,0.4,4.1,0.4C293.1,335.3,295.7,334.3,298.1,334z"
	/>
<path class="st3" d="M290.5,323.1c-1.2,1.3-1.5,3.4-0.7,5s2.5,2.7,4.3,2.7c1.5,0,3-0.8,3.8-2C301.5,323.8,294.6,318.6,290.5,323.1z"
	/>
<path class="st3" d="M319.8,326.8c-4.3,2.2-7,6.8-7.7,11.5c-0.7,4.6,0.2,9.5,3,13.2s7.5,6,12.1,5.4c6.4-0.8,11.4-7,11.8-13.5
	c-1.3,1.2-2.5,2.4-3.8,3.6c-1.7,1.6-3.8,3.4-6.1,3.1c-1.5-0.2-2.7-1.2-3.8-2.2c-3.6-3.6-6-8.4-6.7-13.5c-0.2-1.6,0.1-3.8,1.7-4.2
	c1.4-0.4,2.6,0.9,3.3,2.1c0.7,1.2,1.2,2.7,2.4,3.4c3.7,2.1,7.1-4.2,5.9-7.2C330.3,324.5,322.8,325.2,319.8,326.8z"/>
<path class="st3" d="M364.5,327.6c0.4,3.5-1.9,7.2-5.3,8.4c-3.4,1.2-7.5-0.2-9.4-3.2c-0.5-0.8-0.9-1.8-0.4-2.6
	c0.2-0.4,0.6-0.6,1-0.9c3.5-2.2,6.7-4.9,9.5-8c0.4-0.4,0.8-0.9,0.9-1.5c0.1-0.9-0.6-1.7-1.3-2.3c-5.7-4.8-17.6-6.4-20.1,2.9
	c-1.3,4.7-0.6,9.9,1.8,14.2s6.5,7.6,11.2,9c1.3,0.4,2.8,0.7,4.2,0.5c1.6-0.2,3.2-1,4.6-1.8c2-1.1,4.1-2.3,5.4-4.2
	C368.7,334.8,367.8,329.9,364.5,327.6z M345.4,325.2c-0.4-0.8-0.5-1.6-0.5-2.5c0-1.3,0.2-2.6,0.7-3.8c0.9-2.7,9-0.5,9.4,1.4
	c0.1,0.3-0.2,0.6-0.4,0.9c-1.4,1.3-2.7,2.6-4.1,3.9c-0.8,0.8-1.8,1.7-3,1.6C346.5,326.6,345.8,326,345.4,325.2z"/>
<path class="st3" d="M417,276.6c-2.7-3.8-6.6-6.6-10.7-8.7c-3.2-1.6-6.7-2.9-10.3-2.6c-5.3,0.4-9.8,4-13.9,7.4
	c-5.5,4.6-11,9.2-15.1,15.1c2.1-0.4,5.7-1.7,7.8-1.1c2.2,0.6,4.7,3.9,6.4,5.3c4.6,3.9,9.1,7.9,13.5,11.9c1.8,1.6,3.6,3.4,4,5.7
	c0.3,2.2-0.7,4.8,0.7,6.6c3.6-3.6,7.3-7.2,10.9-10.9c4.5-4.4,9.2-9.3,10.1-15.6C421.2,285.1,419.7,280.3,417,276.6z M412.4,295.9
	c-1.2,1.4-2.4,2.8-3.7,4.1c-0.4,0.4-0.9,0.8-1.4,1c-1.4,0.5-2.8-0.8-3.8-1.9c-4.7-5.3-9.9-10.2-15.4-14.7c-1.7-1.4-6-3.4-5.6-6
	c0.5-2.4,4.7-5.2,6.9-5.7c2.3-0.5,4.7,0.1,6.8,1c6.2,2.6,11.3,7.4,15.8,12.5c1.2,1.4,2.5,3,2.6,4.9
	C414.6,292.9,413.5,294.5,412.4,295.9z"/>
<path class="st3" d="M447.1,253.9c-0.1-0.1-0.2-0.2-0.3-0.3c-0.4-0.2-0.8,0.1-1.2,0.4c-1.5,1.2-3.8,1-5.5,0.1
	c-1.7-0.9-3-2.4-4.4-3.9c-4.2-4.3-11.9-8.1-17.4-3.5c-1.7,1.4-2.9,3.4-3.8,5.4c-1.5,3.2-2.6,6.8-1.5,10.1c1.1,3.3,5.5,5.6,8.3,3.6
	c2.4-1.7,2.2-6-0.3-7.5c-1.1-0.6-2.5-0.8-3.2-1.8c-1-1.3-0.2-3.4,1.2-4.3c1.4-0.9,3.2-0.9,4.8-0.8c0.7,0,1.4,0.1,1.8,0.6
	c0.5,0.5,0.5,1.2,0.5,1.8c0.2,3.2,0.3,6.5,0.5,9.7c0.2,4.1,0.8,8.9,4.3,10.9c2.8,1.6,6.7,0.8,8.8-1.6c2.2-2.4,2.7-6,1.9-9.1
	c2.3-0.1,4.5-1.4,5.6-3.4C448.5,258.4,448.3,255.8,447.1,253.9z M438.3,265.9c-0.6,1.3-2,2.3-3.4,2.3c-0.9,0-1.8-0.3-2.3-1
	c-0.8-0.9-0.9-2.2-0.9-3.4c-0.1-1.6-0.9-4.1,1.1-4.6c1.3-0.3,4.2,1.9,4.9,2.7C438.6,262.9,438.9,264.6,438.3,265.9z"/>
<path class="st3" d="M425.5,240.7c0.3,0.4,0.9,0.2,1.1-0.2c0.3-0.4,0.3-0.9,0.6-1.2c0.4-0.5,1.2-0.6,1.9-0.5
	c8.5,0.1,17.1,0.2,25.6,0.3c0.9,0,1.9,0,2.7,0.3c1.6,0.4,2.9,1.6,3.9,3c1.2,1.6,2,3.5,2.3,5.5c-2.5-1.7-6.5,0.3-6.7,3.3
	c-0.2,2.8,2.7,5.2,5.5,5.1s5.3-2.1,6.6-4.6c0.6-1.1,0.9-2.3,0.9-3.6c0-1.3-0.5-2.6-1.2-3.8c-1.9-3.4-5.2-5.9-8.3-8.3
	c-6.4-5.1-12.5-10.7-18-16.8c-1.5-1.6-3.1-3.6-2.9-5.8c0.1-0.7,0.2-1.7-0.5-2c-0.6-0.2-1.1,0.3-1.5,0.8c-2,2.8-3.7,5.9-4.8,9.2
	c1.5-0.8,3.1-1.6,4.7-1.4c0.9,0.2,1.8,0.7,2.5,1.2c3.5,2.4,6.4,5.6,8.5,9.2c-4.8,0.1-9.7,0.2-14.5,0.3c-1.9,0-2.1-1.6-2-3.1
	c-2.1,0-2.9,3.3-3.5,4.9C428.2,233.5,425,239.9,425.5,240.7z"/>
<path class="st3" d="M102.8,438.1c0.6,0,0.9-0.6,1.2-1.1c0.5-1,1-2,1.4-3c2.9-0.1,5.7-0.2,8.6-0.3c0.4,0,0.8,0,1.1,0.2
	c0.3,0.3,0.4,0.8,0.4,1.2c0.2,9.3-0.1,18.7-0.8,27.9c-1.4-0.3-2.9,0.6-3.4,1.9c6.6,1.3,13.4,1.4,20,0.3c1.1-0.2,2.6-1.2,1.9-2.1
	c-1.2,0.5-2.7-0.3-3.3-1.5c-0.6-1.2-0.7-2.6-0.7-3.9c-0.2-8.5-0.4-17.1-0.6-25.6c2,1.2,4.9-0.4,6.9,0.8c1.3,0.8,2.4,2.7,3.8,2.1
	c0.2-2.7,0-5.4-0.6-8c-8.8,0.7-17.6,1.3-26.4,2c-2.6,0.2-7.8-0.4-10.1,1.1C100.3,431.4,100.4,438,102.8,438.1z"/>
<path class="st3" d="M149.7,427.5c2.1,0.3,4.2,1.4,5,3.3c1.4,3.2-0.8,7.6,1.6,10.1c0.7-1.9,2.5-3.5,4.5-3.9c3.2-0.7,6.6,1.4,8.2,4.2
	c1.7,2.8,1.9,6.3,1.8,9.6c-0.1,3.3-0.6,6.6-0.2,9.9c0.1,0.5,0.1,1,0.4,1.4c0.6,0.8,1.8,1.2,1.8,2.2c-3.2,0.2-6.5,0.3-9.7,0.5
	c-1.3,0.1-3.2-0.5-2.9-1.8c1.3-0.7,1.6-2.4,1.8-3.9c0.4-3.2,0.9-6.4,1.3-9.6c0.3-2.4,0.2-5.6-2.1-6.4c-1.5-0.5-3.2,0.4-4,1.7
	c-0.9,1.3-1.1,2.9-1.4,4.4c-0.4,2.4-0.8,4.9-1.1,7.3c-0.2,1.6-0.4,3.4,0.7,4.5c0.6,0.7,1.8,1.4,1.3,2.2c-3.2,0.8-6.5,1.1-9.8,0.8
	c-0.9-0.1-2.1-0.6-1.8-1.5c0.2-0.7,1.3-0.7,1.9-1.3c0.4-0.4,0.4-1,0.4-1.5c0.1-7.6,0.2-15.2,0.3-22.8c0-1.4,0-2.8-0.4-4
	c-0.4-1.1-3.5-3.7-3.4-4.4C144.1,427.1,148.8,427.4,149.7,427.5z"/>
<path class="st3" d="M206.5,461.2c-0.6-0.5-1.4-0.7-2.1-1.1c-5.8-3.4-1.3-13.1-4.7-18.2c-3.3-4.9-13.1-5.6-17.9-3.1
	c-2.5,1.3-4.5,3.8-4.6,6.6c-0.1,2.8,2,5.7,4.8,5.9c1.9,0.2,3.9-1,4.7-2.7c0.2-0.4,0.3-0.8,0.2-1.2c-0.4-1.3-2.7-0.6-3.7-1.5
	c-1.2-1-0.1-3,1.4-3.6c3.4-1.5,7.8,1.2,8,4.9c0,0.7-0.1,1.4-0.3,2c-0.9,1.9-3.2,2.6-5.2,3.2c-2.6,0.8-5.2,2.1-6.7,4.4
	c-1.4,2.3-1.2,5.9,1.2,7.2c3.8,2.3,9.1-2.6,12.9-0.4c0.7,0.4,1.2,1,2,1.2c0.6,0.2,1.3,0.3,1.9,0.3c2.3,0,4.7-0.1,7-0.5
	c0.8-0.1,1.8-0.4,2.1-1.2C207.7,462.6,207.2,461.7,206.5,461.2z M194.6,457.6c-1.7,1.1-3.8,1.7-5.8,1.6c-0.3,0-0.6,0-0.8-0.2
	c-0.3-0.2-0.4-0.5-0.4-0.8c-0.1-1,0.4-2,1.2-2.6s1.7-1.1,2.6-1.5c0.8-0.3,1.6-0.7,2.4-1l0.4,0.6
	C194.7,454.9,194.9,456.3,194.6,457.6z"/>
<path class="st3" d="M218,437.5c0.4,0,0.8,0,1,0.3c0.3,0.3,0.3,0.8,0.5,1.2c0.4,0.6,1.3,0.6,1.9,0.3c0.6-0.3,1.1-0.9,1.7-1.3
	c0.9-0.6,2-0.6,3-0.7c2.6-0.1,5.1-0.2,7.7-0.4c0.7,0,1.5,0,2,0.4c0.6,0.4,0.8,1.1,1,1.7c1.1,3.7,1.4,7.6,1.2,11.4
	c-0.2,4.5-0.9,9.5,1.7,13.2c-3.8,0-7.6,0-11.4,0.1c-0.7,0-1.5,0-1.9-0.6c-0.1-0.1-0.2-0.2-0.2-0.4c-0.1-0.3,0-0.6,0-1
	c1-5.7,1.7-11.4,2.1-17.2c0-0.5,0-0.9-0.2-1.3c-0.3-0.4-0.8-0.5-1.2-0.5c-1.1-0.1-2.3-0.2-3.4-0.1c-0.7,0.1-1.5,0.2-2,0.8
	c-0.4,0.5-0.4,1.1-0.4,1.7c-0.3,4.4-0.5,8.9-0.8,13.3c0,0.7-0.1,1.4,0.3,2c0.5,0.7,1.6,1.3,1.3,2.1c-0.2,0.6-1,0.7-1.6,0.7
	c-2.5,0.1-5.1,0.2-7.6,0.3c-1.5,0.1-3.4-0.1-3.9-1.6c1.7-1.3,1.9-3.7,2.1-5.8c0.2-3.1,0.4-6.1,0.6-9.2c0.1-2.1,0.2-4.4-1.1-6
	c-0.4-0.6-1.1-1.1-1.3-1.8C208.2,436.4,216.5,437.5,218,437.5z"/>
<path class="st3" d="M251,424.8c0.7,0,1.4,0,2,0.2c2.2,0.8,2.6,3.7,2.5,6c-0.1,4.6-0.1,9.2-0.2,13.8c0,1.2,0.5,2.8,1.6,2.5
	c0.5-0.1,0.8-0.5,1-0.9c1.9-2.9,3.9-5.8,5.8-8.8c-0.8,0.3-1.7,0.1-2.4-0.4c4.2-1.3,8.6-1.8,13-1.6c0.5,0.3,0.3,1.1-0.1,1.5
	s-1,0.5-1.6,0.7c-3,0.9-5.1,3.6-7,6.2c-0.8,1.1-1.6,2.3-1.4,3.6c0.2,0.9,0.8,1.6,1.4,2.3c3.8,4.1,8.2,7.8,13,10.8
	c-5.8,0.4-11.6,0.8-17.4,1.2c0-0.8,0.9-1.5,1.7-1.3c-0.5-1.8-1-3.6-2-5.1c-1-1.5-2.6-2.8-4.4-3c-0.8,2.7-0.3,5.7,1.1,8.1
	c0.1,0.2,0.3,0.5,0.3,0.8c-0.1,0.6-0.8,0.8-1.4,0.8c-3.4,0-6.8,0.1-10.2,0.1c-0.5,0-1.1,0-1.5-0.3c-0.4-0.3-0.6-1-0.2-1.3
	c0.4-0.2,0.8-0.3,1.1-0.5c0.6-9,0.8-18,0.6-27c0-1.4-0.1-2.8-0.9-3.9c-1-1.3-4.1-2.7-1.8-4.1C245.1,424.2,249.3,424.9,251,424.8z"/>
<path class="st3" d="M308.3,423c1,0,2.1,0,3,0.5c0.9,0.5,1.4,1.8,0.8,2.6c-0.9-0.3-1.8,0.6-1.8,1.6c0,0.9,0.6,1.8,1.1,2.5
	c2.3,3.1,4.5,6.3,6.8,9.4c0.4,0.6,1.1,1.3,1.8,1.1c0.4-0.1,0.6-0.4,0.8-0.7c2.7-3.8,5.4-7.5,8.1-11.3c0.2-0.3,0.4-0.6,0.3-0.9
	c-0.1-0.4-0.5-0.5-0.9-0.6c-1-0.2-2.1-0.3-3.1-0.4c0-2,2.5-2.8,4.4-3c3.4-0.4,6.9-0.5,10.4-0.4c0.4,0.7-0.2,1.5-0.9,1.8
	c-0.7,0.3-1.5,0.2-2.3,0.4c-1.2,0.3-2.2,1.1-3.1,1.9c-6,5.4-10,12.9-11.3,20.9c-0.5,3.4-0.3,7.4,2.3,9.6c0.9,0.7,2,1.5,1.8,2.6
	c-6,0.1-11.9,0.2-17.9,0.4c-0.3,0-0.7,0-1-0.2c-0.9-0.6,0-2,0.8-2.8c2.5-2.4,3.5-6.2,2.5-9.5c-1-3.2-3.7-5.6-6.1-7.9
	c-3.1-3.1-6-6.4-8.5-10.1c-0.7-1-1.3-2-2.2-2.8c-0.9-0.8-2.5-1.1-3.2-2c-1.2-1.5-0.5-1.8,1-2.3C296.9,421.9,303.4,423.1,308.3,423z"
	/>
<path class="st3" d="M363.4,443.5c-0.8-8.5-12.4-13.1-19.8-9.9c-1.6,0.7-2.9,2-4.2,3.2c-3,3-6.3,6.5-6.1,10.7
	c0.1,2.3,1.3,4.5,2.8,6.3c2.3,3,5.5,5.4,9,6.8c1.6,0.7,3.4,1.1,5.2,1c4.4-0.3,7.8-3.9,10.1-7.7C362.3,450.8,363.8,447.2,363.4,443.5
	z M353.8,449.5c-0.5,2.4-1.6,4.7-3.5,6.2c-1.3,1-3.1,1.6-4.5,0.8c-1.3-0.7-1.8-2.3-2.1-3.7c-0.9-3.9-1.2-7.9-0.8-11.9
	c0.1-0.7,0.2-1.4,0.5-2c1.5-2.9,4-1.7,6.1-0.8c2.6,1.1,4.5,0.6,4.7,4.1C354.2,444.6,354.3,447.1,353.8,449.5z"/>
<path class="st3" d="M377.3,435c1.6,1.4,1.7,3.8,1.7,5.9c0,3.9,0.1,7.8,0.1,11.7c0,1.1,0.1,2.5,1.1,3c0.4,0.2,0.9,0.3,1.4,0.2
	c2.4-0.4,3.9-3,4.1-5.5c0.2-2.5-0.4-4.9-0.3-7.4c0.1-1.4,0.3-2.8,0.2-4.1c-0.1-1.4-0.8-2.8-2-3.4c2.9-0.4,5.9-0.5,8.9-0.4
	c0.6,0,1.2,0.1,1.6,0.4c0.7,0.5,0.8,1.5,0.9,2.3c0.3,4.3,0.4,8.5,0.3,12.8c0,1.6-0.1,3.4,0.9,4.7c0.5,0.6,1.1,1.1,1.6,1.8
	c0.5,0.6,0.7,1.6,0.3,2.2c-3.2,0.6-6.4,0.9-9.6,0.7c-0.8,0-1.6-0.1-2.2-0.5c-0.4-0.2-0.8-0.6-1.2-0.7c-0.4-0.1-0.9,0-1.3,0.1
	c-1.9,0.4-3.7,1-5.6,1.2s-4-0.1-5.4-1.4c-2.1-1.7-2.5-4.8-2.7-7.5c-0.2-3.7-0.3-7.3-0.1-11c0.1-2.2-0.7-3.7-1.2-5.7
	C370.9,433.5,375.4,433.2,377.3,435z"/>
<path class="st3" d="M404.3,430.9c-0.4,1.9,0.3,3.8,1,5.5c1.3,3.4,2.7,6.9,4,10.3c0.4,1,0.8,2.1,1.6,2.8c-0.6-7.1,4.5-13.7,4.6-20.8
	c0-0.8-0.1-1.6-0.4-2.3c-0.3-0.5-0.7-0.9-1.1-1.3c-1.7-1.4-4.5-3.1-6.3-1.4C406.5,424.9,404.6,429.2,404.3,430.9z"/>
<path class="st3" d="M409.6,453.6c-1.1,0-2.4,0.1-3.2,0.9c-0.5,0.5-0.7,1.3-0.7,2.1c0,1.8,1.3,3.5,2.9,4.2c1.7,0.7,3.7,0.5,5.2-0.5
	c0.4-0.3,0.8-0.6,1-1.1c0.2-0.4,0.2-0.8,0.1-1.3C414.7,453.9,413.2,453.6,409.6,453.6z"/>
</svg>
