<?xml version="1.0" encoding="utf-8"?>
<!-- Generator: Adobe Illustrator 22.1.0, SVG Export Plug-In . SVG Version: 6.00 Build 0)  -->
<svg version="1.1" xmlns="http://www.w3.org/2000/svg" xmlns:xlink="http://www.w3.org/1999/xlink" x="0px" y="0px"
	 viewBox="0 0 500 500" style="enable-background:new 0 0 500 500;" xml:space="preserve">
<style type="text/css">
	.st0{fill:#B70000;}
	.st1{fill:#FFFFFF;}
	.st2{fill:#000900;}
	.st3{fill:#008335;}
	.st4{fill:#05702C;}
</style>
<g id="Layer_2">
	<path class="st0" d="M136.9,131.9c-3.5,4.6-5.5,10.2-9.3,14.6c-2.8,3.3-6.6,5.9-8.7,9.8c-1.8,3.4-2.2,7.3-2.5,11.1
		c-1.1,14.5-1.7,29-1.8,43.6c-0.1,9.7,0,19.6,2.9,29c3.5,11.5,10.8,21.5,18.2,31c27.2,35.5,56.2,69.8,86.6,102.6
		c2.6,2.8,5.4,5.7,8.9,7.2c3.8,1.6,8.1,1.1,12.2,1.1c11,0.2,22.2,2.5,33.1-1.9c3.4-1.4,7.5-0.4,10.9-2.1c2.8-1.3,5-3.5,7.2-5.7
		c15.8-15.4,31.8-31,43.4-49.8c8-13,13.6-27.3,20.5-40.9c8.9-17.8,19.9-34.8,25-54c3.3-12.2,4.1-24.9,4.4-37.5
		c0.1-6.6,0.1-13.2-1.5-19.6c-1.9-7.3-6.6-13.4-9.6-20.3c-7.1-16.3-20.1-33.1-37-41.4c-14-6.9-30.5-6.6-46-4.6
		c-11.7,1.5-23.2,4-34.4,7.4c-10,3-20,6.8-30.4,6.7c-7.1-0.1-14.1-2-21.2-3.3C185.1,110.8,152.4,111.4,136.9,131.9z"/>
</g>
<g id="Layer_3">
	<g>
		<g>
			<path class="st1" d="M166.1,131.6c1.9,0,1.9-3,0-3C164.1,128.6,164.1,131.6,166.1,131.6L166.1,131.6z"/>
		</g>
	</g>
	<g>
		<g>
			<path class="st1" d="M190.8,132.1c1.9,0,1.9-3,0-3C188.9,129.1,188.9,132.1,190.8,132.1L190.8,132.1z"/>
		</g>
	</g>
	<g>
		<g>
			<path class="st1" d="M141.3,154.7c1.9,0,1.9-3,0-3C139.4,151.7,139.4,154.7,141.3,154.7L141.3,154.7z"/>
		</g>
	</g>
	<g>
		<g>
			<path class="st1" d="M166.1,160.1c1.9,0,1.9-3,0-3C164.1,157.1,164.1,160.1,166.1,160.1L166.1,160.1z"/>
		</g>
	</g>
	<g>
		<g>
			<path class="st1" d="M126.3,182.7c1.9,0,1.9-3,0-3C124.3,179.7,124.3,182.7,126.3,182.7L126.3,182.7z"/>
		</g>
	</g>
	<g>
		<g>
			<path class="st1" d="M152.6,185.4c1.9,0,1.9-3,0-3C150.7,182.4,150.7,185.4,152.6,185.4L152.6,185.4z"/>
		</g>
	</g>
	<g>
		<g>
			<path class="st1" d="M237.6,133.2c1.9,0,1.9-3,0-3C235.7,130.2,235.7,133.2,237.6,133.2L237.6,133.2z"/>
		</g>
	</g>
	<g>
		<g>
			<path class="st1" d="M259.7,130c1.9,0,1.9-3,0-3C257.7,127,257.7,130,259.7,130L259.7,130z"/>
		</g>
	</g>
	<g>
		<g>
			<path class="st1" d="M277.4,131.6c1.9,0,1.9-3,0-3C275.5,128.6,275.5,131.6,277.4,131.6L277.4,131.6z"/>
		</g>
	</g>
	<g>
		<g>
			<path class="st1" d="M301.6,127.3c1.9,0,1.9-3,0-3C299.7,124.3,299.7,127.3,301.6,127.3L301.6,127.3z"/>
		</g>
	</g>
	<g>
		<g>
			<path class="st1" d="M324.8,122.4c1.9,0,1.9-3,0-3C322.8,119.4,322.8,122.4,324.8,122.4L324.8,122.4z"/>
		</g>
	</g>
	<g>
		<g>
			<path class="st1" d="M343.1,126.2c1.9,0,1.9-3,0-3C341.1,123.2,341.1,126.2,343.1,126.2L343.1,126.2z"/>
		</g>
	</g>
	<g>
		<g>
			<path class="st1" d="M359.2,135.9c1.9,0,1.9-3,0-3C357.3,132.9,357.3,135.9,359.2,135.9L359.2,135.9z"/>
		</g>
	</g>
	<g>
		<g>
			<path class="st1" d="M322.6,146.6c1.9,0,1.9-3,0-3C320.7,143.6,320.7,146.6,322.6,146.6L322.6,146.6z"/>
		</g>
	</g>
	<g>
		<g>
			<path class="st1" d="M299.5,156.9c1.9,0,1.9-3,0-3C297.5,153.9,297.5,156.9,299.5,156.9L299.5,156.9z"/>
		</g>
	</g>
	<g>
		<g>
			<path class="st1" d="M260.7,159c1.9,0,1.9-3,0-3C258.8,156,258.8,159,260.7,159L260.7,159z"/>
		</g>
	</g>
	<g>
		<g>
			<path class="st1" d="M226.3,156.3c1.9,0,1.9-3,0-3C224.4,153.3,224.4,156.3,226.3,156.3L226.3,156.3z"/>
		</g>
	</g>
	<g>
		<g>
			<path class="st1" d="M207.5,169.8c1.9,0,1.9-3,0-3C205.6,166.8,205.6,169.8,207.5,169.8L207.5,169.8z"/>
		</g>
	</g>
	<g>
		<g>
			<path class="st1" d="M190.3,189.1c1.9,0,1.9-3,0-3C188.3,186.1,188.3,189.1,190.3,189.1L190.3,189.1z"/>
		</g>
	</g>
	<g>
		<g>
			<path class="st1" d="M127.3,203.1c1.9,0,1.9-3,0-3C125.4,200.1,125.4,203.1,127.3,203.1L127.3,203.1z"/>
		</g>
	</g>
	<g>
		<g>
			<path class="st1" d="M220.4,185.4c1.9,0,1.9-3,0-3C218.5,182.4,218.5,185.4,220.4,185.4L220.4,185.4z"/>
		</g>
	</g>
	<g>
		<g>
			<path class="st1" d="M240.3,183.8c1.9,0,1.9-3,0-3C238.4,180.8,238.4,183.8,240.3,183.8L240.3,183.8z"/>
		</g>
	</g>
	<g>
		<g>
			<path class="st1" d="M273.7,184.8c1.9,0,1.9-3,0-3C271.7,181.8,271.7,184.8,273.7,184.8L273.7,184.8z"/>
		</g>
	</g>
	<g>
		<g>
			<path class="st1" d="M309.2,186.5c1.9,0,1.9-3,0-3C307.2,183.5,307.2,186.5,309.2,186.5L309.2,186.5z"/>
		</g>
	</g>
	<g>
		<g>
			<path class="st1" d="M338.7,194.5c1.9,0,1.9-3,0-3C336.8,191.5,336.8,194.5,338.7,194.5L338.7,194.5z"/>
		</g>
	</g>
	<g>
		<g>
			<path class="st1" d="M340.4,165.5c1.9,0,1.9-3,0-3C338.4,162.5,338.4,165.5,340.4,165.5L340.4,165.5z"/>
		</g>
	</g>
	<g>
		<g>
			<path class="st1" d="M357.6,162.2c1.9,0,1.9-3,0-3C355.6,159.2,355.6,162.2,357.6,162.2L357.6,162.2z"/>
		</g>
	</g>
	<g>
		<g>
			<path class="st1" d="M378,180c1.9,0,1.9-3,0-3C376.1,177,376.1,180,378,180L378,180z"/>
		</g>
	</g>
	<g>
		<g>
			<path class="st1" d="M363,198.3c1.9,0,1.9-3,0-3C361,195.3,361,198.3,363,198.3L363,198.3z"/>
		</g>
	</g>
	<g>
		<g>
			<path class="st1" d="M371,223.6c1.9,0,1.9-3,0-3C369.1,220.6,369.1,223.6,371,223.6L371,223.6z"/>
		</g>
	</g>
	<g>
		<g>
			<path class="st1" d="M346.3,231.1c1.9,0,1.9-3,0-3C344.3,228.1,344.3,231.1,346.3,231.1L346.3,231.1z"/>
		</g>
	</g>
	<g>
		<g>
			<path class="st1" d="M308.6,212.3c1.9,0,1.9-3,0-3C306.7,209.3,306.7,212.3,308.6,212.3L308.6,212.3z"/>
		</g>
	</g>
	<g>
		<g>
			<path class="st1" d="M277.4,218.7c1.9,0,1.9-3,0-3C275.5,215.7,275.5,218.7,277.4,218.7L277.4,218.7z"/>
		</g>
	</g>
	<g>
		<g>
			<path class="st1" d="M312.9,234.3c1.9,0,1.9-3,0-3C311,231.3,311,234.3,312.9,234.3L312.9,234.3z"/>
		</g>
	</g>
	<g>
		<g>
			<path class="st1" d="M328.5,262.8c1.9,0,1.9-3,0-3C326.6,259.8,326.6,262.8,328.5,262.8L328.5,262.8z"/>
		</g>
	</g>
	<g>
		<g>
			<path class="st1" d="M350.6,262.3c1.9,0,1.9-3,0-3C348.7,259.3,348.6,262.3,350.6,262.3L350.6,262.3z"/>
		</g>
	</g>
	<g>
		<g>
			<path class="st1" d="M337.7,288.7c1.9,0,1.9-3,0-3C335.7,285.7,335.7,288.7,337.7,288.7L337.7,288.7z"/>
		</g>
	</g>
	<g>
		<g>
			<path class="st1" d="M319.4,307.5c1.9,0,1.9-3,0-3C317.5,304.5,317.4,307.5,319.4,307.5L319.4,307.5z"/>
		</g>
	</g>
	<g>
		<g>
			<path class="st1" d="M322.6,330.6c1.9,0,1.9-3,0-3C320.7,327.6,320.7,330.6,322.6,330.6L322.6,330.6z"/>
		</g>
	</g>
	<g>
		<g>
			<path class="st1" d="M297.3,343.5c1.9,0,1.9-3,0-3C295.4,340.5,295.4,343.5,297.3,343.5L297.3,343.5z"/>
		</g>
	</g>
	<g>
		<g>
			<path class="st1" d="M290.3,325.2c1.9,0,1.9-3,0-3C288.4,322.2,288.4,325.2,290.3,325.2L290.3,325.2z"/>
		</g>
	</g>
	<g>
		<g>
			<path class="st1" d="M283.3,308c1.9,0,1.9-3,0-3C281.4,305,281.4,308,283.3,308L283.3,308z"/>
		</g>
	</g>
	<g>
		<g>
			<path class="st1" d="M304.9,283.8c1.9,0,1.9-3,0-3C302.9,280.8,302.9,283.8,304.9,283.8L304.9,283.8z"/>
		</g>
	</g>
	<g>
		<g>
			<path class="st1" d="M303.2,253.7c1.9,0,1.9-3,0-3C301.3,250.7,301.3,253.7,303.2,253.7L303.2,253.7z"/>
		</g>
	</g>
	<g>
		<g>
			<path class="st1" d="M273.1,248.9c1.9,0,1.9-3,0-3C271.2,245.9,271.2,248.9,273.1,248.9L273.1,248.9z"/>
		</g>
	</g>
	<g>
		<g>
			<path class="st1" d="M276.3,279.5c1.9,0,1.9-3,0-3C274.4,276.5,274.4,279.5,276.3,279.5L276.3,279.5z"/>
		</g>
	</g>
	<g>
		<g>
			<path class="st1" d="M240.3,222c1.9,0,1.9-3,0-3C238.4,219,238.4,222,240.3,222L240.3,222z"/>
		</g>
	</g>
	<g>
		<g>
			<path class="st1" d="M243.5,251c1.9,0,1.9-3,0-3C241.6,248,241.6,251,243.5,251L243.5,251z"/>
		</g>
	</g>
	<g>
		<g>
			<path class="st1" d="M249.5,285.4c1.9,0,1.9-3,0-3C247.5,282.4,247.5,285.4,249.5,285.4L249.5,285.4z"/>
		</g>
	</g>
	<g>
		<g>
			<path class="st1" d="M257,317.7c1.9,0,1.9-3,0-3C255.1,314.7,255,317.7,257,317.7L257,317.7z"/>
		</g>
	</g>
	<g>
		<g>
			<path class="st1" d="M259.1,344.6c1.9,0,1.9-3,0-3C257.2,341.6,257.2,344.6,259.1,344.6L259.1,344.6z"/>
		</g>
	</g>
	<g>
		<g>
			<path class="st1" d="M270.4,370.4c1.9,0,1.9-3,0-3C268.5,367.4,268.5,370.4,270.4,370.4L270.4,370.4z"/>
		</g>
	</g>
	<g>
		<g>
			<path class="st1" d="M281.7,370.4c1.9,0,1.9-3,0-3C279.8,367.4,279.8,370.4,281.7,370.4L281.7,370.4z"/>
		</g>
	</g>
	<g>
		<g>
			<path class="st1" d="M255.9,368.8c1.9,0,1.9-3,0-3C254,365.8,254,368.8,255.9,368.8L255.9,368.8z"/>
		</g>
	</g>
	<g>
		<g>
			<path class="st1" d="M241.9,368.3c1.9,0,1.9-3,0-3C240,365.3,240,368.3,241.9,368.3L241.9,368.3z"/>
		</g>
	</g>
	<g>
		<g>
			<path class="st1" d="M223.6,345.7c1.9,0,1.9-3,0-3C221.7,342.7,221.7,345.7,223.6,345.7L223.6,345.7z"/>
		</g>
	</g>
	<g>
		<g>
			<path class="st1" d="M234.4,315c1.9,0,1.9-3,0-3C232.5,312,232.5,315,234.4,315L234.4,315z"/>
		</g>
	</g>
	<g>
		<g>
			<path class="st1" d="M198.9,334.4c1.9,0,1.9-3,0-3C197,331.4,197,334.4,198.9,334.4L198.9,334.4z"/>
		</g>
	</g>
	<g>
		<g>
			<path class="st1" d="M209.6,307.5c1.9,0,1.9-3,0-3C207.7,304.5,207.7,307.5,209.6,307.5L209.6,307.5z"/>
		</g>
	</g>
	<g>
		<g>
			<path class="st1" d="M181.1,301.6c1.9,0,1.9-3,0-3C179.2,298.6,179.2,301.6,181.1,301.6L181.1,301.6z"/>
		</g>
	</g>
	<g>
		<g>
			<path class="st1" d="M211.8,282.7c1.9,0,1.9-3,0-3C209.9,279.7,209.9,282.7,211.8,282.7L211.8,282.7z"/>
		</g>
	</g>
	<g>
		<g>
			<path class="st1" d="M210.7,256.9c1.9,0,1.9-3,0-3C208.8,253.9,208.8,256.9,210.7,256.9L210.7,256.9z"/>
		</g>
	</g>
	<g>
		<g>
			<path class="st1" d="M207,223c1.9,0,1.9-3,0-3C205,220,205,223,207,223L207,223z"/>
		</g>
	</g>
	<g>
		<g>
			<path class="st1" d="M180.1,234.3c1.9,0,1.9-3,0-3C178.1,231.3,178.1,234.3,180.1,234.3L180.1,234.3z"/>
		</g>
	</g>
	<g>
		<g>
			<path class="st1" d="M159.6,214.4c1.9,0,1.9-3,0-3C157.7,211.4,157.7,214.4,159.6,214.4L159.6,214.4z"/>
		</g>
	</g>
	<g>
		<g>
			<path class="st1" d="M142.9,237c1.9,0,1.9-3,0-3C141,234,141,237,142.9,237L142.9,237z"/>
		</g>
	</g>
	<g>
		<g>
			<path class="st1" d="M166.6,265.5c1.9,0,1.9-3,0-3C164.7,262.5,164.7,265.5,166.6,265.5L166.6,265.5z"/>
		</g>
	</g>
	<g>
		<g>
			<path class="st1" d="M189.2,271.4c1.9,0,1.9-3,0-3C187.3,268.4,187.3,271.4,189.2,271.4L189.2,271.4z"/>
		</g>
	</g>
</g>
<g id="Layer_5">
	<path class="st2" d="M188.9,111.9c4.9,1.2,9.6,3.3,14.4,4.7c4.9,1.4,10.2,1.9,14.9,0c0-1.5,0-3,0-4.5c-7.3-2.3-14.6-4.6-22.2-5.5
		c-4.8-0.6-16.1-2-18.7,3.2C180.5,111.3,185.2,111,188.9,111.9z"/>
	<path class="st2" d="M170.3,183.1c-1.4,0.7-3.1,2.1-2.3,3.5c0.3,0.6,1.1,0.9,1.8,1.1c8.8,2.5,18.4-0.9,25.4-6.7
		c7.1-5.8,12.1-13.6,16.9-21.4c6.5-10.3,13.1-20.7,19.6-31c1.2-1.9,2.5-3.9,4.7-4.4c2.2-0.5,5,0.6,6.6-1c1.2-1.1,1.2-3.2,2.5-4.1
		c0.8-0.5,1.8-0.5,2.7-0.5c10.6,0.2,21.3,0.4,31.9,0.6c8.6,0.2,17.4,0.3,25.6-2.2s15.9-8.3,18.6-16.5c-21.8,9.4-45.9,13.4-69.5,11.7
		c-6.9-0.5-14.2-1.5-20.4,1.6c-5.3,2.7-8.9,7.8-12.2,12.8C208.1,147.8,193.8,171.3,170.3,183.1z"/>
</g>
<g id="Layer_4">
	<path class="st3" d="M169.7,91.2c-13.1,1.4-25.2,8-34.7,17.1c-5.7,5.5-10.7,12.2-12.2,19.9c6.2-6.2,15.2-8.5,23.8-10.5
		c11.9-2.8,23.9-5.6,35.8-8.4c3.9-0.9,8-1.9,12-1.6c8.2,0.5,15.4,5.7,23.5,6.8c-24,16.5-30.6,49.2-50.4,70.7
		c25.1-10.2,45.9-30.3,57.1-55c1.5-3.3,2.9-6.7,5.4-9.3c3-3,7.2-4.5,11.3-5.4c10.8-2.4,22-1.8,33-1.6s22.4-0.1,32.7-4.1
		c10.3-4,19.6-12.3,21.9-23.1c-5.7,7.7-16.5,9-26,8.5c-9.5-0.6-19.5-2.3-28.2,1.5c-9.1,4-16.5,13.7-26.3,12.5
		c8-8.6,19.6-12.7,29.5-19.1c9.9-6.4,18.9-17.2,16.5-28.7c-5.8,4-11.6,8-18.2,10.6c-8.5,3.3-18.2,4.2-25.4,9.8
		c-8.5,6.6-11.1,18.1-16.6,27.3c-0.9,1.6-2.8,3.3-4.3,2.3c-0.8-0.5-1.1-1.5-1.2-2.5c-0.5-4.1,0.7-8.9-2.2-11.9
		c-1.7-1.8-4.4-2.3-6.3-4c-1.6-1.5-2.4-3.7-3.9-5.3c-1.5-1.6-4.5-2.4-5.8-0.5c-1,3.6,3.3,6,6.4,8.2c3.9,2.7,9.4,9.2,5.3,13.7
		c-4.9,5.4-10.8-0.5-14.3-3.9C197.3,95.1,184.5,89.6,169.7,91.2z"/>
</g>
<g id="Layer_6">
	<path class="st4" d="M82.9,251.5c0.5,0,1.2-0.2,1.4-0.6c0.1-0.3,0.1-0.6,0.1-0.8c0-1.1,0-2.1,0-3.2c1-0.1,2.1-0.2,3.1-0.4
		c0.4,0,0.8-0.1,1.2,0.1c0.4,0.3,0.6,0.8,0.7,1.3c0.9,4.1,1.3,8.3,1,12.5c-1.7,0.1-3.3,0.2-5,0.3c0.6-0.7,0.1-2-0.8-2.4
		s-1.9-0.3-2.9-0.1c-7.9,1.3-15.9,1.9-23.8,1.7c-0.3,0-0.6,0-0.8-0.2c-0.2-0.2-0.2-0.5-0.2-0.8c0-2.2-0.5-3.8,1.3-5
		c1.6-1,5.8-0.6,7.7-0.8C71.7,252.5,77.3,252,82.9,251.5z"/>
	<path class="st4" d="M70.3,270.9c5.5-1.6,11.1-3.2,16.6-4.8c1.4-0.4,2.8-0.8,4.2-0.3c1.3,0.5,2.3,2.2,1.5,3.4
		c-3.4,0.9-6.7,1.8-10.1,2.8c-0.5,0.1-1,0.3-1.4,0.7c-1,1-0.2,2.7,0.7,3.9c0.2,0.2,0.4,0.5,0.7,0.6c0.2,0,0.4,0,0.6-0.1
		c3.2-1,6.4-1.9,9.6-2.9c0.4,1.6,0.8,3.1,1.3,4.7c0.1,0.3,0.1,0.5,0,0.8c-0.1,0.3-0.5,0.3-0.7,0.4c-10.1,2.1-20.9,2.5-30.1,7.1
		c-0.7-1.5-1.5-2.9-2.2-4.4c3.4-0.6,6.7-1.2,10.1-1.8c1.5-0.3,3.2-0.6,4.2-1.8c1.1-1.1,1-3.4-0.5-3.9c-4.2,1.3-8.6,1.9-13,1.9
		c0,0-0.6-2.8-0.5-3c0.4-1.9-0.5-0.7,1.3-1.6C64.6,271.5,68,271.5,70.3,270.9z"/>
	<path class="st4" d="M97,289.1c-0.1-0.2-17.9,4.1-19.7,4.4c-2.9,0.4-7.5,0-10.2,1.1c-3,1.3-1.4,3.2-0.2,6.1
		c0.1,0.2,0.2,0.5,0.4,0.6c0.3,0.3,0.8,0.1,1.2,0c1.7-0.6,3.5-1.1,5.2-1.7c0.7,1.2,1.4,2.8,0.6,3.9c-0.4,0.6-1.1,0.9-1.8,1.1
		c-1.4,0.5-2.8,1.1-4.2,1.6c0.4,1.7,0.9,3.3,1.6,4.9c9.7-6.2,19.8-11.8,30.1-16.8C99.1,292.6,98.1,290.8,97,289.1z M89.7,295
		c-4,1.2-7.7,3-11.3,5.1c-1.5-3.2,3.1-3.7,5.1-4.4c1.8-0.6,3.5-1.4,5.3-2c0.7-0.3,5.2-0.8,5.5-1.2C93.2,294,91.4,294.5,89.7,295z"/>
	<path class="st4" d="M101,302.4c0.6-0.3,1.2-0.7,1.8-0.5c0.5,0.1,0.8,0.5,1.1,0.9c1.4,1.7,2.7,3.4,4.1,5
		c-5.3,4.3-10.3,9.1-14.8,14.2c6-3.3,11.9-7,17.5-11c0.6,1.5,1.2,3.1,1.8,4.6c-9.5,7.3-19.6,13.8-30.2,19.5
		c-1.9-2.1-3.6-4.3-5.1-6.6c7.5-5.6,14.5-11.8,21.1-18.4c-6.6,4.1-13.1,8.9-20,12.3c-5.8-5.6,1.6-8,6.1-10.7
		C90,308.7,95.5,305.5,101,302.4z"/>
	<path class="st4" d="M112.5,322.2c0.4-0.3,0.8-0.6,1.3-0.7c1.9-0.6,3.5,1.5,4.5,3.3c-4.3,2-8.2,4.6-11.7,7.8
		c3.4,0.1,6.8-0.3,10.1-1.2c1.7-0.4,3.4-0.9,5.1-0.5s3.1,2.3,2.3,3.9c-4.2,0.5-8.4,1.1-12.6,1.6c-0.3,0-0.6,0.1-0.9,0.2
		c-0.4,0.2-0.6,0.6-0.8,1c-3.1,5.3-6.7,10.4-10.6,15.1c-0.2,0.3-0.5,0.6-0.8,0.6c-0.4,0.1-0.7-0.1-1-0.3c-1.3-0.8-2.6-1.5-3.9-2.3
		c3.9-4.1,7.3-8.6,10.1-13.6c-0.5,0.9-5.1,2-6.1,2.5c-1.9,0.9-4.4,3-6.4,3.5c-2.7,0.6-2.3-1.4-0.9-3.8c2-3.5,6.7-5.7,9.9-8
		C104.1,328.2,108.3,325.2,112.5,322.2z"/>
	<path class="st4" d="M117.7,369.9c-0.6,0.8-1.2,1.6-1.3,2.5c-0.1,1.4,1.1,2.6,2.2,3.5c0.3,0.2,0.5,0.5,0.9,0.6
		c1,0.3,1.9-0.7,2.6-1.6c1.8-2.6,3.7-5.2,6.3-7c1.5-1,3.2-1.6,4.8-2.5c4-2,7.5-4.9,11-7.7c0.3-0.3,0.6-0.5,0.8-0.9
		c0.6-1.4-1.5-2.5-1.9-4c-3.5,2.6-7.3,4.7-11.3,6.4c0.7-3.5,3.6-5.9,4.9-9.2c1.6-4.1-2.3-6.4-4.5-2.8c-2.3,3.6-3.5,7.9-6,11.6
		C123.6,362.8,120.6,366.3,117.7,369.9z"/>
	<path class="st4" d="M158.5,362.8c-3.5-7.6-13.8,2.5-16.2,5.8c-2.2,3-4.3,6-6.1,9.1c-1.3,2.2-2.5,4.5-2.9,7
		c-0.1,1.1-0.1,2.2,0.3,3.2c1,2.7,4.4,4,7.3,3.4s5.3-2.6,7.3-4.7C152.5,382.2,161.7,369.7,158.5,362.8z M148.3,379.9
		c-1.2,1.6-2.5,3.2-4.2,4.3c-1.7,1.1-3.8,1.7-5.7,1.3c1.5-5.1,5.1-12.9,10-15.6C156.1,365.8,149.9,377.7,148.3,379.9z"/>
	<path class="st4" d="M157.8,382.2c-3.5,4.7-7,9.4-9.1,14.8c-0.5,1.4-1,3-0.2,4.3c0.4,0.6,1,1,1.6,1.4c3,1.6,6.8,1.7,9.8,0.1
		c3.2-1.6,5.3-4.7,7.2-7.7c3.7-5.6,7.4-11.2,11.1-16.8c-1.6-1.1-3.4-1.9-5.3-2.3c-4.9,7-9.7,13.9-14.6,20.9
		c-0.5,0.7-1.2,1.6-2.1,1.5c-1.2-0.1-1.7-1.5-1.6-2.7c0.2-3,2.3-5.5,4.4-7.7c2-2.1,13.9-13.1,11.4-14.8
		C166,370.2,159.2,379.5,157.8,382.2z"/>
	<path class="st4" d="M182.4,416.1c-0.5,1.2-0.8,2.8,0.2,3.6c0.7,0.6,1.9,0.4,2.6-0.2s1.2-1.5,1.6-2.3c1.1-2.1,2.1-4.3,3.2-6.4
		c0.4-0.9,0.9-1.8,1.7-2.5c0.8-0.7,1.9-1,2.8-0.6c0.9,0.5,1.9,1.6,2.7,0.9c0.2-0.2,0.3-0.6,0.4-0.9c0.2-1,0.3-1.9,0.5-2.9
		c-1.2,0.9-3-0.3-3.3-1.7c-0.3-1.4,0.3-2.9,0.9-4.2c0.5-1,0.9-2,1.4-3c0.1-0.3,0.3-0.5,0.5-0.7c0.3-0.2,0.7-0.1,1,0
		c1.6,0.4,3.1,0.9,4.7,1.3c0.6-1.7,1.2-3.6,1.1-5.4c-5.3-0.8-10-1.8-12.6,3.6C188.6,401.8,185.1,408.9,182.4,416.1z"/>
	<path class="st4" d="M209,397.6c-0.8,1.3-1.3,2.7-1.6,4.2c-1.6,6.2-2.2,12.7-2.7,19.1c-0.2,2.7-0.2,5.8,1.8,7.7
		c1.3,1.2,3.2,1.6,5,1.7c1.7,0,3.4-0.2,4.8-1.1c3.1-1.9,3.7-6,4.1-9.6c0.6-6.6,1.2-13.1,1.8-19.7C222.8,392.2,212.4,392.5,209,397.6
		z M217.6,403.2c-0.5,5.7-1.5,11.4-3,16.9c-0.3,1.2-0.7,2.5-1.7,3.3c-0.9,0.9-2.5,1.1-3.4,0.2c-0.6-0.6-0.7-1.5-0.7-2.4
		c-0.3-6.9,0.8-13.8,3.2-20.2c0.6-1.6,2.4-3.9,4.4-2.8C218.2,399.2,217.7,401.7,217.6,403.2z"/>
	<path class="st4" d="M273.4,405.7c0.8-1.7,0.9-3.4-0.1-5c-1.1-1.5-2.8-2.5-4.7-2.8c-2.6-0.5-5.5,0.3-7.5,2c-2,1.7-3.3,4.4-3.3,7
		c0,0.9,0.1,1.8,0.5,2.6c0.5,0.9,1.3,1.7,2.1,2.4c2.2,2,4.3,3.9,6.5,5.9c1.1,1,2.2,2,3,3.2c1.3,1.9,1.9,4.2,1.6,6.5
		c-0.2,1.8-1.6,3.8-3.3,3.3c-1.3-0.4-1.7-2-1.6-3.3c0-1.3,0.2-2.7-0.5-3.9c-1.2-1-3.1-0.5-4.1,0.7c-1,1.2-1.2,2.8-1.2,4.4
		c0,1.3,0.1,2.7,0.8,3.8c1,1.6,3.1,2.4,5,2.6c2.4,0.3,5-0.1,7.1-1.4c2.1-1.3,3.7-3.5,3.9-5.9c0.5-4.3-3-7.9-6.2-10.8
		c-3.2-2.9-6.6-6.5-6.2-10.8c0.1-0.9,0.4-1.8,1.1-2.4c0.7-0.6,1.8-0.7,2.5-0.1c0.9,0.8,0.6,2.2,1.3,3.1
		C271.2,407.9,272.5,407.1,273.4,405.7"/>
	<path class="st4" d="M287.8,426.4c0.4,1.2,0.9,2.5,2,3.2c1.1,0.7,2.9,0.2,3-1c0-0.4-0.1-0.8-0.2-1.2c-1.4-4-2.9-8-4.3-12
		c1.3-1.2,3-1.9,4.8-2c0.8,2.3,1.7,4.6,2.5,6.9c0.6,1.6,1.2,3.2,2.5,4.2s3.5,1.1,4.4-0.3c0.9-1.3,0.1-3.1-0.6-4.5
		c-4.3-8.7-7.9-17.8-10.6-27.2c-1.4,0.6-2.8,1.2-4.3,1.7c0.5,3.9,1.7,7.7,3.6,11.2c0.2,0.3,0.3,0.6,0.2,0.9
		c-0.1,0.3-0.4,0.4-0.6,0.6c-0.9,0.5-2,0.8-3,1c-1.6-3.9-3-8-4.9-11.8c-7.5,0.7-4.1,6.7-2.2,11C283,413.6,285.5,419.9,287.8,426.4z"
		/>
	<path class="st4" d="M323.1,407.7c-0.8-2.5-2.2-4.8-3.7-6.9c-2.9-4.4-5.9-8.9-9.2-13c-1.9-2.3-5.4-3.9-8.2-1.6
		c-1.2,1-1.6,2.7-1.9,4.3c-0.4,2.5-0.9,5.2-0.2,7.7c0.4,1.7,1.4,3.2,2.3,4.7c2.6,4.1,5.4,8,8.4,11.8c1.5,1.9,3.3,4,5.7,4.4
		c2.6,0.4,5.3-1.2,6.4-3.6S323.9,410.2,323.1,407.7z M318,412.4c0,0.2-0.1,0.4-0.3,0.5c-0.1,0.1-0.3,0.1-0.5,0.2
		c-2.7,0.2-4.9-2.1-6.4-4.3c-2-2.8-3.7-5.7-5.1-8.8c-0.8-1.7-1.5-3.5-1.3-5.4c0-4.6,4.1-3.7,5.8-0.9c2.2,3.7,4.1,7.8,6.1,11.7
		C317.4,407.5,318.6,410,318,412.4z"/>
	<path class="st4" d="M337.9,404.6c-0.5-1.8-2.1-3.2-3.4-4.6c-1.3-1.4-2.6-3.1-2.4-5c0.2-2.5,2.8-4.1,3.7-6.4
		c0.8-2.2,0.1-4.6-1.2-6.5c-2-3.1-5.5-5.2-9.2-5.3c-3.1-0.1-6.5,1.5-8.3,4.1c-1.9,2.7,0,5.3,1.4,7.8c3.8,6.6,8.7,12.4,13.5,18.2
		c0.9,1.1,2,2.2,3.4,2.2C337.4,408.9,338.5,406.5,337.9,404.6z M328.5,390.7c-1.3,0.1-2.3-1.1-3.1-2.2c-1.3-1.8-4.5-4.5-2.4-6.6
		c1.4-1.4,4.8-1.3,5.7,0.6c0.3,0.6,0.3,1.3,0.3,1.9C329,386.6,328.8,388.7,328.5,390.7z"/>
	<path class="st4" d="M357.3,390.1c-0.3-1-1-1.8-1.6-2.6c-1.8-2.1-3.5-4.2-5.3-6.3c-0.4-0.4-0.8-0.9-0.8-1.5c0-0.5,0.3-0.9,0.5-1.4
		c1.1-1.9,2-4,2.1-6.2c0.2-4.6-3.5-9-8-9.7c-3.5-0.5-6.7,1.3-8.9,3.9c-2.6,3.2-1.8,5.5,0.5,8.6c4.7,6.4,10.5,12.1,16.7,16.9
		c1.1,0.9,2.7,1.8,3.9,1C357.4,392.3,357.6,391.1,357.3,390.1z M345.7,377.4c-0.4,0.1-0.8-0.3-1.2-0.6c-1.7-1.7-5.6-4.9-5-7.6
		c0.6-2.8,4.7-3.9,6.2-1.2c0.5,0.8,0.6,1.8,0.7,2.7C346.7,372.9,346.4,375.2,345.7,377.4z"/>
	<path class="st4" d="M370.3,379c0.3,0.2,0.6,0.4,0.9,0.4c0.7,0.1,1.2-0.7,1.5-1.3c0.6-1.2,1.2-2.7,0.6-4c-0.3-0.5-0.7-0.9-1.1-1.3
		c-4-3.5-7.9-7-11.9-10.4c-2-1.7-4-3.5-5.9-5.2c-1-0.9-3.4-3.9-4.9-3.8c-2.6,0.2-1.7,4.6-0.9,6.1c1.8,3.6,6.3,6.8,9.2,9.5
		C361.7,372.5,365.9,375.9,370.3,379z"/>
	<path class="st4" d="M375.9,368.1c1,0.6,2,1.1,3.1,1c1.1-0.1,2.2-1.1,2-2.2c-0.1-0.6-0.6-1.1-1.1-1.5c-4.3-3.9-8.7-7.9-13-11.8
		c4.6,2,9.2,4.1,13.8,6.1c1.3,0.6,2.6,1.1,3.9,1.1c1.4,0,2.8-0.8,3.2-2.1c0.4-1.4-0.6-2.8-1.6-3.9c-5.6-6.6-12.4-12.1-19.9-16.3
		c-1-0.6-2.3-1.1-3.4-0.5c-1,0.6-1.1,1.9-0.7,3c0.4,1,1.3,1.8,2.2,2.5c4.4,3.6,8.7,7.3,13.1,10.9c-5-2.8-10.2-5.2-15.5-7.3
		c-1.4-0.6-2.9-1.1-4.5-1.2c-8.9-0.2,1.2,9,3.4,11.2C365.6,361.3,370.6,365,375.9,368.1z"/>
	<path class="st4" d="M377.4,321.9c-2.2-0.4-4.7,0.3-6.3,1.9c-1.6,1.7-2,4.2-1.8,6.5c0.1,1.1,0.2,2.2,0.7,3.1
		c0.6,1.1,1.6,1.9,2.6,2.6c5.4,4.2,10.8,8.4,17,11.3c1.4,0.6,2.9,1.2,4.4,1.3c1.5,0.1,3.2-0.5,4.1-1.7c1.1-1.5,0.9-3.5,0.7-5.3
		c0.8,0,1.6-0.1,2.4-0.1c1.1-1.5-0.5-3.5-1.9-4.7c-2.8-2.3-5.5-4.6-8.3-6.9c-0.4-0.3-0.8-0.7-1.3-0.6c-0.4,0.1-0.7,0.4-0.9,0.6
		c-1.2,1.3-2.1,2.7-3,4.3c-0.3,0.6-0.6,1.6,0,2c0.3,0.2,0.7,0.2,1.1,0.2c2.8-0.1,5.6,1.2,7.2,3.5c0.3,0.4,0.6,0.9,0.5,1.4
		c-0.1,1.3-2,1.5-3.3,1.2c-5.6-1.4-10.3-5.3-14.5-9.4c-1-1-2.1-2.1-2.2-3.6c-0.1-1.4,1.5-2.9,2.7-2.2c0.7,0.4,0.9,1.3,1.6,1.8
		c1,0.8,2.6,0.3,3.3-0.8C384.9,324.8,380.7,322.4,377.4,321.9z"/>
	<path class="st4" d="M390.1,304c7.7,3.1,15.2,6.9,22.3,11.3c1.3,0.8,2.8,1.7,4.4,1.7c1.6-0.1,3.2-1.6,2.7-3.1
		c-0.3-1.1-1.4-1.6-2.5-2c-2-0.9-4-1.8-6-2.6c-1.3-0.5-2.6-1.2-3.3-2.3s-0.4-3,0.9-3.5c0.9-0.3,1.9,0.2,2.7,0.8c1.6,1,3.2,2,4.7,2.9
		c1.2,0.7,2.4,1.5,3.7,1.7c1.4,0.2,2.9-0.2,3.6-1.4c0.9-1.4,0.2-3.3-1-4.4c-1.2-1.1-2.8-1.7-4.3-2.2c-6.6-2.6-12.5-6.6-18.9-9.5
		c-1.8-0.8-4.3-1.5-5.6,0.1c-1,1.2-0.6,3.1,0.5,4.2c1.1,1.1,2.6,1.7,4.1,2.1c1.5,0.5,3,0.9,4.1,2c0.8,0.7,1.3,2,0.7,2.8
		c-0.6,0.8-1.7,0.7-2.7,0.5c-2.5-0.5-4.8-1.5-7-2.7C389.8,298.6,390.2,300.8,390.1,304z"/>
	<path class="st4" d="M397.3,283.8c-0.4,0.8-0.7,1.7-0.1,2.4c0.3,0.4,0.7,0.5,1.2,0.6c3.2,1,6.3,2.4,9.2,4c4.8,2.7,9.3,6.1,14.6,7.9
		c1.2,0.4,2.5,0.7,3.8,0.4c1.7-0.4,2.9-1.9,3.8-3.4c1.8-2.7,3.1-5.8,3.8-8.9c-1.9-1.1-3.9-2-6-2.5c0.6,2.2-1.3,4.6-3.6,5
		c-2.3,0.4-4.6-0.8-6.1-2.5c-0.3-0.3-0.5-0.6-0.6-1c-0.2-1.2,1.3-2.6,0.6-3.6c-1.3-0.8-3.1-1.6-4.2-0.5c-0.6,0.6-0.6,1.5-1,2.2
		c-0.8,1.4-2.6,1.8-4.1,1.3s-2.7-1.6-3.8-2.6c-2.2-2.1,4-7.2-0.7-7C400.4,275.9,398.5,281.1,397.3,283.8z"/>
	<path class="st4" d="M439.8,271.5c0.6-2,0.9-4.9-1-5.7c-0.5-0.2-1.2-0.2-1.8-0.2c-4.2,0-8.4,0-12.6,0c0.6-1.2,0.2-2.7-0.6-3.7
		c-0.8-1-2-1.7-3.2-2.3c-2.9-1.4-6.1-2.5-9.4-2.6c-0.8,0-1.7,0-2.4,0.4c-0.8,0.4-1.3,1.2-1.7,2c-1.1,1.9-3.8,6.2-2.3,8
		c1.6,2.1,7.7,3.4,10.2,4.5c1.8,0.8,20.8,8.7,20.8,8.8c0.3-0.9,0.6-1.9,1-2.8c0.1-0.3,0.2-0.6,0.1-0.9c-0.1-0.3-0.5-0.5-0.9-0.6
		c-4-1.3-7.7-3.2-11.2-5.6C429.7,271.4,434.8,271.7,439.8,271.5z M419.8,269.4c-0.2,0.7-9.9-1.6-6.8-5.6
		C415.8,260.2,420.5,266.3,419.8,269.4z"/>
	<path class="st4" d="M412.9,248.4c-0.2,0.6-0.3,1.2-0.2,1.7c0.2,1,1.2,1.5,2.1,1.9c5,2.3,10.7,2.8,15.8,4.7c4.1,1.6,8.2,4,12.6,3.7
		c1.2-3,1.4-6.3,1.6-9.5c0-1,0.1-2.2-0.5-3.1c-0.5-0.9-1.9-1.4-2.7-0.7c-0.8,1.9-1.7,3.8-2.5,5.7c-0.1,0.3-0.3,0.6-0.6,0.7
		c-0.3,0.1-0.7,0-1.1-0.2c-1.1-0.6-2.3-1.1-3.4-1.7c-1.5-0.7-3.2-1.9-3.1-3.5c0.1-1.1,1-2.2,0.6-3.2c-1.2-0.1-2.5-0.2-3.7-0.3
		c0.4,1.3-0.7,2.7-2,3c-1.3,0.4-2.7,0-4-0.5s-2.5-1.1-3.9-1.2c0.5-2.2,1.1-4.4,1.4-6.5C413.8,238.5,414,244.1,412.9,248.4z"/>
	<path class="st4" d="M242.1,428c-0.6-0.6-1.3-1.1-1.8-1.8c-0.5-0.7-0.5-1.6-0.6-2.5c-0.2-3.1-0.3-6.2-0.5-9.3
		c0.8,0.6,2,0.1,2.5-0.7c0.5-0.8,0.6-1.8,0.6-2.8c0-2.3,0-4.6,0-6.9c0-2.2-0.3-4.7-2.2-5.7c-0.5-0.3-1.1-0.4-1.6-0.5
		c-1.9-0.4-9.2-2-10.4-0.2c-0.5,0.9,0.3,4.6,0.3,5.7c0,2.1-0.1,4.1-0.2,6.2c-0.2,2-2.3,23.6-2.2,23.6c1.9-0.1,3.9-0.2,5.8-0.2
		c-0.2-3.8-0.4-7.6-0.6-11.4c-0.1-1.2-0.1-2.5,0.5-3.5c0.6-1,2.1-1.7,3-1c0.8,0.6,0.9,1.7,0.9,2.7c0.1,2.5,0.5,5,1.1,7.4
		c0.3,1.4,0.8,2.8,1.9,3.6c1.1,0.9,3,0.9,3.7-0.3C243,429.7,242.7,428.7,242.1,428z M239.1,406.3c-0.1,1.5-0.6,3-1.6,4.2
		c-1,1.1-2.7,1.7-4.1,1.1c-0.1-2.3-1.2-7.3,1.1-9C237.2,400.6,239.4,403.8,239.1,406.3z"/>
</g>
</svg>
